<svg width="4348" height="2271" viewBox="0 0 4348 2271" fill="none" xmlns="http://www.w3.org/2000/svg">
<path d="M0 35.5726C0 31.5559 2.27739 27.8865 5.87681 26.1037V26.1037L12.9642 22.7529C14.3923 22.0778 15.8851 21.5495 17.42 21.176L18.5095 20.911C21.5152 20.1797 24.6547 20.1996 27.6509 20.9691V20.9691C29.6327 21.478 31.5183 22.3064 33.2337 23.4215L34.8898 24.4981C36.5327 25.5661 38.0702 26.788 39.4816 28.1472L48.6936 37.019L57.9618 45.7218C58.4975 46.2249 59.0894 46.6646 59.7258 47.0323V47.0323C61.0279 47.7848 62.489 48.2199 63.9907 48.3026L68.5023 48.5509C69.7976 48.6221 71.0698 48.187 72.05 47.3373V47.3373C72.6993 46.7746 73.4826 46.3887 74.3245 46.217L75.9114 45.8934C78.6544 45.334 81.5074 45.8247 83.9059 47.2684L90.251 51.0876L125.932 73.8884L180.082 103.238L282.579 176.436C298.155 187.559 316.595 193.979 335.71 194.933L438.328 200.055C456.93 200.984 475.422 196.699 491.72 187.683L562.532 148.509C570.86 143.902 578.487 138.13 585.184 131.367L621.683 94.5062L663.66 51.8153L682.549 32.6529L701.019 17.8566L708.597 12.9727C710.808 11.5476 713.225 10.471 715.764 9.7808V9.7808C717.958 9.18414 720.222 8.88184 722.496 8.88184H725.739C728.285 8.88184 730.828 9.07659 733.345 9.46438L734.953 9.71217C739.726 10.4477 744.353 11.9324 748.663 14.1115L749.461 14.515C751.304 15.4473 753.064 16.5384 754.719 17.7758V17.7758C757.798 20.0784 760.484 22.8645 762.672 26.0258L764.405 28.5294L768.313 33.6615C768.785 34.2814 769.314 34.8556 769.894 35.3765L770.189 35.6417C771.889 37.1699 774.017 38.1399 776.286 38.4208V38.4208C777.862 38.616 779.462 38.4729 780.978 38.001L784.134 37.019L785.144 36.573C789.184 34.7878 793.552 33.8657 797.969 33.8657H798.731C802.669 33.8657 806.562 34.6921 810.16 36.2913V36.2913V36.2913C812.888 37.0794 815.795 36.9795 818.463 36.0061L822.334 34.5934L836.089 27.5282C839.463 25.795 843.202 24.8909 846.996 24.8909H847.506C851.365 24.8909 855.156 25.9075 858.498 27.8384V27.8384C860.128 28.7802 861.63 29.9277 862.967 31.2525L869.768 37.9893L875.724 44.4678C876.509 45.322 877.363 46.1104 878.277 46.825L881.117 49.045C883.011 50.5258 885.346 51.3302 887.75 51.3302H890.281C891.655 51.3302 892.968 50.7591 893.905 49.7535V49.7535C894.842 48.7479 896.155 48.1769 897.529 48.1769H899.84C901.855 48.1769 903.826 48.7702 905.507 49.8829L943.228 74.8587L1070 140.35L1176.1 186.333C1187 191.054 1198.64 193.798 1210.5 194.435L1235.19 195.762C1242.85 196.174 1250.54 195.703 1258.09 194.358L1308.31 185.416C1315.37 184.16 1322.27 182.149 1328.89 179.417L1387.77 155.147L1460.1 126.64C1466.43 124.144 1472.49 121.007 1478.19 117.28L1493.58 107.205C1500.81 102.478 1508.61 98.7067 1516.8 95.9842L1530.84 91.3184C1544.66 86.7258 1557.09 78.7297 1567.01 68.0669V68.0669L1574.5 60.4508C1577.59 57.3145 1581.29 54.845 1585.37 53.195V53.195C1586.84 52.5994 1588.35 52.1138 1589.9 51.742L1597.65 49.8748V49.8748C1604.98 48.2558 1611.93 53.8334 1611.93 61.3379V296.075V406.249C1611.93 415.867 1613.31 425.435 1616.04 434.657L1644.43 530.474C1647.37 540.384 1648.75 550.689 1648.53 561.023L1614.02 2172.64C1612.86 2227.02 1568.44 2270.5 1514.04 2270.5H21.5C9.62588 2270.5 0 2260.87 0 2249V2249V541.394V537.36V529.291V513.153V480.877V416.325V287.222V35.5726Z" fill="url(#paint0_linear_292_889)"/>
<path d="M1578.79 79.4755C1577.5 68.3574 1583.01 57.5534 1592.77 52.0689V52.0689C1602.98 46.33 1615.69 47.6104 1624.55 55.2698L1665.2 90.4117L1688.54 107.942C1699.72 116.334 1709.01 126.974 1715.82 139.178L1726.45 158.213C1731.43 167.143 1738.55 174.697 1747.18 180.195V180.195C1757.1 186.52 1768.62 189.88 1780.38 189.88H1910.14H2194.81C2202.04 189.88 2209.25 189.095 2216.31 187.54L2299.4 169.243C2309.87 166.939 2319.89 162.968 2329.09 157.483L2355.66 141.648L2466.96 92.4014L2530.07 66.001L2594.54 45.693L2648.99 36.0131C2658.34 34.3516 2667.4 31.3678 2675.91 27.1516L2691.25 19.5464L2720.09 7.1078L2720.7 6.91245C2734.86 2.41801 2750.08 2.48635 2764.2 7.1078V7.1078L2792.78 15.0283C2798.1 16.5014 2803.05 19.0586 2807.33 22.5391V22.5391C2813.29 27.3802 2820.51 30.4061 2828.13 31.2558L2848.35 33.5082L2869.96 37.9674C2881.7 40.3903 2892.91 44.9045 2903.05 51.2943L2917.7 60.5278C2923.47 64.1603 2929.7 67.0064 2936.22 68.9904V68.9904C2942.98 71.0491 2949.43 74.0357 2955.37 77.8647L2980.84 94.2711C2991.94 101.416 3004.33 106.294 3017.32 108.626L3201.24 141.648L3348.07 174.891C3353.32 176.082 3358.67 176.845 3364.05 177.174L3571.94 189.88H4339.88C4344.09 189.88 4347.5 193.291 4347.5 197.5V197.5V238V274.5V294.5V327V361V440.5V500.5V527.5V540V545.215V1406.36V2249V2249C4347.5 2259.22 4339.22 2267.5 4329 2267.5H1711.88C1656.65 2267.5 1611.88 2222.73 1611.88 2167.5V539.836V538.463V535.719V530.229V519.25V497.292V453.376V365.544L1578.79 79.4755Z" fill="url(#paint1_linear_292_889)"/>
<defs>
<linearGradient id="paint0_linear_292_889" x1="805.962" y1="8.88184" x2="805.962" y2="545.429" gradientUnits="userSpaceOnUse">
<stop stop-color="#46505D"/>
<stop offset="0.4" stop-color="#5E6570"/>
<stop offset="1" stop-color="#BFBCB5"/>
</linearGradient>
<linearGradient id="paint1_linear_292_889" x1="2750.63" y1="8.2561e-07" x2="2754.04" y2="541.225" gradientUnits="userSpaceOnUse">
<stop stop-color="#46505D"/>
<stop offset="0.4" stop-color="#5E6570"/>
<stop offset="1" stop-color="#BFBCB5"/>
</linearGradient>
</defs>
</svg>
