<svg width="4348" height="2277" viewBox="0 0 4348 2277" fill="none" xmlns="http://www.w3.org/2000/svg">
<path d="M0 307.558C0 269.752 25.7186 236.794 62.3903 227.604V227.604C81.1993 222.891 97.7445 211.697 109.117 195.991L124.253 175.088C127.326 170.843 130.061 166.363 132.433 161.69L140.387 146.014C141.936 142.961 143.911 140.144 146.253 137.646L148.686 135.051C151.649 131.891 155.427 129.61 159.603 128.461V128.461C162.592 127.639 165.389 126.234 167.833 124.327L172.323 120.823C175.249 118.539 178.41 116.576 181.754 114.965L188.058 111.928L195.667 107.409C197.026 106.603 198.278 105.631 199.397 104.515V104.515C202.387 101.534 204.303 97.6441 204.845 93.4564L206.622 79.7136C207.363 73.9839 210.519 68.8445 215.294 65.5915V65.5915C216.165 64.9979 217.081 64.4734 218.034 64.0226L221.793 62.245C224.442 60.9918 226.713 59.061 228.377 56.6478V56.6478C230.278 53.8903 232.966 51.7707 236.091 50.5663L242.628 48.0471L243.406 47.7522C249.474 45.4499 254.749 41.4434 258.594 36.2145V36.2145C260.808 33.2041 263.507 30.5831 266.581 28.4588L275.371 22.3856L278.408 20.4962C282.765 17.7855 287.669 16.0727 292.767 15.4807L293.961 15.342C295.833 15.1245 297.725 15.1245 299.597 15.342V15.342C305.365 16.0118 310.705 18.7142 314.661 22.9647L315.868 24.2614C317.409 25.9172 318.753 27.7462 319.872 29.7118L324.932 38.596C326.024 40.514 327.444 42.2257 329.127 43.6535L331.584 45.7375C334.517 48.2259 338.442 49.2072 342.201 48.3922V48.3922C343.258 48.1631 344.28 47.7964 345.242 47.3015L350.136 44.7818C352.46 43.5851 355.235 43.6602 357.491 44.9807V44.9807C357.873 45.2046 358.236 45.4613 358.574 45.748L363.35 49.7995C366.26 52.268 369.344 54.5236 372.578 56.549L377.107 59.3854C378.403 60.1969 379.765 60.8969 381.18 61.4778L382.117 61.8627C385.348 63.1901 388.23 65.2464 390.536 67.871V67.871C392.652 70.2794 394.234 73.1091 395.176 76.1735L397.524 83.8094L400.882 95.2752L404.103 107.144C404.474 108.51 404.986 109.833 405.631 111.092L406.722 113.22C408.105 115.919 410.36 118.072 413.121 119.328V119.328C415.802 120.549 418.809 120.856 421.681 120.202L423.932 119.69C425.073 119.43 426.24 119.299 427.41 119.299V119.299C431.896 119.299 436.167 121.222 439.14 124.581L441.757 127.536C442.211 128.05 442.62 128.601 442.98 129.185V129.185C444.771 132.097 447.731 134.095 451.102 134.667L452.775 134.951C454.504 135.245 456.281 134.916 457.791 134.023V134.023C459.265 133.152 460.995 132.817 462.688 133.076L463.672 133.227C465.96 133.577 468.061 134.694 469.631 136.395L470.436 137.268C471.63 138.562 472.561 140.075 473.178 141.725L473.405 142.332C475.072 146.788 478.539 150.336 482.957 152.104L483.764 152.427C485.859 153.265 488.095 153.696 490.351 153.696V153.696C494.389 153.696 498.306 155.075 501.454 157.604L503.727 159.429L508.707 163.802C510.879 165.709 513.763 166.597 516.632 166.241V166.241C519.381 165.901 521.871 164.448 523.521 162.223L532.271 150.42L545.761 128.487C549.063 123.12 553.146 118.274 557.877 114.112V114.112V114.112C560.597 111.989 563.949 110.836 567.4 110.836H571.706C575.804 110.836 579.788 109.482 583.037 106.984L584.154 106.126C586.185 104.565 588.613 103.606 591.161 103.358V103.358C594.081 103.073 597.014 103.734 599.529 105.244L605.588 108.881C606.241 109.273 606.849 109.737 607.399 110.263V110.263C611.036 113.741 616.658 114.07 620.675 111.039L622.175 109.907C623.512 108.899 624.632 107.631 625.469 106.18L629.665 98.9026C631.053 96.4967 632.78 94.2993 634.79 92.3824V92.3824C636.951 90.3213 639.42 88.603 642.104 87.2939L645.238 85.7649C647.14 84.8374 649.228 84.3554 651.343 84.3554H653.058C656.302 84.3554 659.361 85.8625 661.339 88.4342V88.4342C661.766 88.9896 662.247 89.5005 662.776 89.9594L664.262 91.2471C668.53 94.9488 673.76 97.3667 679.345 98.2214L683.053 98.7888C684.394 98.9941 685.75 99.0971 687.107 99.0971H697.271C700.128 99.0971 702.785 100.56 704.313 102.973V102.973C704.635 103.482 704.901 104.023 705.106 104.589L719.141 143.272C721.327 149.298 724.088 155.099 727.384 160.596L738.799 179.631L750.014 199.965C751.539 202.729 754.83 203.996 757.814 202.969V202.969C759.097 202.527 760.21 201.694 760.996 200.587L765.648 194.031C768.421 190.124 772.048 186.901 776.254 184.607L779.957 182.587C781.899 181.528 783.928 180.639 786.024 179.929L788.59 179.06C797.737 175.961 807.788 177.079 816.032 182.112V182.112C820.983 185.135 825.037 189.424 827.777 194.537L832.002 202.421C832.829 203.964 833.86 205.388 835.069 206.654V206.654C838.731 210.492 843.805 212.663 849.11 212.663H850.888C855.272 212.663 859.569 213.886 863.296 216.194L864.649 217.032C865.817 217.756 866.882 218.635 867.814 219.645V219.645C873.355 225.651 882.656 226.195 888.859 220.875L912.475 200.622C914.782 198.644 916.893 196.449 918.779 194.067L941.468 165.425C943.412 162.971 946.194 161.321 949.281 160.793V160.793C951.369 160.435 953.514 160.606 955.519 161.289L965.217 164.593C968.446 165.693 971.834 166.254 975.246 166.254H981.308C983.033 166.254 984.726 165.78 986.201 164.885L988.33 163.593C989.534 162.862 990.322 161.607 990.457 160.205V160.205C990.587 158.852 991.326 157.632 992.465 156.891L992.621 156.79C994.015 155.884 995.776 155.755 997.287 156.448L1000.79 158.057C1001.59 158.425 1002.35 158.88 1003.05 159.415L1009.13 164.07L1017.81 171.123C1020.89 173.624 1024.73 174.99 1028.7 174.99V174.99C1032.61 174.99 1036.4 176.319 1039.46 178.76L1041.41 180.318C1043.11 181.674 1044.62 183.25 1045.9 185.005L1055.73 198.467L1059.43 204.898C1060.32 206.428 1061.4 207.836 1062.65 209.085L1065.22 211.658C1065.88 212.318 1066.69 212.805 1067.58 213.076V213.076C1070.38 213.925 1073.37 212.507 1074.48 209.8L1090.99 169.53L1105.68 142.503L1106.93 140.786C1111.21 134.932 1117.78 131.186 1125 130.491L1128.14 130.188C1133.35 129.686 1138.09 126.988 1141.18 122.77L1142.29 121.244C1143.87 119.093 1144.72 116.497 1144.72 113.831V111.056C1144.72 105.657 1149.09 101.281 1154.49 101.281V101.281C1157.1 101.281 1159.6 102.324 1161.44 104.179L1175.48 118.358C1177.36 120.256 1179.38 122.01 1181.52 123.604L1181.92 123.899C1185.37 126.463 1188.47 129.468 1191.14 132.837V132.837C1193.21 135.452 1195.01 138.272 1196.51 141.252L1201.4 150.968C1201.95 152.056 1202.39 153.196 1202.71 154.371L1205.56 164.74C1206.07 166.601 1207.76 167.892 1209.69 167.892V167.892C1212.06 167.892 1213.98 165.972 1213.98 163.605V155.843C1213.98 153.721 1214.54 151.638 1215.6 149.802L1224.9 133.768L1234.55 111.655L1252.8 77.9045C1261.93 61.0172 1276.35 47.5996 1293.86 39.7183L1300.75 36.6149C1307.2 33.7119 1312.98 29.5081 1317.73 24.2671L1319.97 21.7877C1325.57 15.6021 1332.94 11.2878 1341.08 9.42872V9.42872C1343.1 8.96747 1345.15 8.66089 1347.21 8.51165L1353.95 8.02456C1357.43 7.77326 1360.82 6.83344 1363.94 5.25967L1369.99 2.19645C1372.76 0.797644 1375.98 0.631419 1378.88 1.73872V1.73872C1380.58 2.38933 1382.09 3.45233 1383.28 4.83218L1389.53 12.085C1391.98 14.9386 1394.1 18.0664 1395.84 21.4063L1402.04 33.3054L1404.58 39.5555C1406.75 44.8966 1410.55 49.4121 1415.45 52.4526V52.4526C1416.58 53.1546 1417.76 53.7728 1418.98 54.3022L1421.52 55.4001C1426.15 57.4071 1430.53 59.9473 1434.57 62.9691L1436.88 64.6998V64.6998C1442.86 69.4762 1447.08 76.1161 1448.86 83.5639L1449.89 87.9044L1453.82 104.947C1454.56 108.139 1455.56 111.266 1456.81 114.295L1458.88 119.322C1459.32 120.394 1459.89 121.41 1460.58 122.348L1465.16 128.616C1466.54 130.505 1469.05 131.169 1471.18 130.209V130.209C1472.34 129.689 1473.25 128.747 1473.73 127.575L1476.78 120.129C1477.6 118.128 1478.68 116.241 1479.98 114.515L1489.77 101.554L1494.25 93.461C1496.22 89.898 1499.51 87.2457 1503.41 86.0685V86.0685C1507.06 84.9648 1511 85.2375 1514.46 86.8351L1514.64 86.9166C1517.58 88.2717 1520.05 90.4804 1521.72 93.2555L1526.71 101.554L1533.85 114.658L1538.77 121.666C1541.32 125.305 1544.77 128.227 1548.77 130.153V130.153C1551.12 131.282 1553.63 132.051 1556.21 132.435L1564.49 133.666C1566.17 133.915 1567.82 134.295 1569.44 134.801V134.801C1575.26 136.623 1580.45 140.043 1584.42 144.671L1584.82 145.136C1587.2 147.913 1589.13 151.05 1590.54 154.43L1599.84 176.838C1602.53 183.299 1606.99 188.866 1612.71 192.891V192.891C1623.18 200.261 1629.09 212.527 1628.33 225.311L1611.93 501.74V658.885C1611.93 668 1613.17 677.073 1615.63 685.851L1656.07 830.276C1658.53 839.054 1659.78 848.127 1659.78 857.243V2254.72C1659.78 2266.75 1650.03 2276.5 1638 2276.5V2276.5H20V2276.5C8.95431 2276.5 0 2267.55 0 2256.5V841.16V838.815V834.126V824.746V805.988V768.471V693.438V543.372V307.558Z" fill="url(#paint0_linear_292_902)"/>
<path d="M1611.84 254.442C1611.84 250.121 1613.22 245.912 1615.77 242.429V242.429C1616.84 240.974 1617.71 239.383 1618.36 237.698L1625.57 218.932C1629.3 209.206 1635.04 200.371 1642.4 192.997V192.997C1646.14 189.247 1649.47 185.109 1652.34 180.654L1654.5 177.289C1660.21 168.414 1667.57 160.72 1676.18 154.626L1678.91 152.694C1680.71 151.426 1682.39 150.016 1683.96 148.476L1687.24 145.25C1692.78 139.808 1700.23 136.759 1707.99 136.759V136.759C1714.49 136.759 1720.8 138.894 1725.96 142.836L1726.56 143.29C1732.1 147.526 1738.89 149.821 1745.87 149.821H1752.66C1759.42 149.821 1766.11 151.141 1772.36 153.705L1780.65 157.107C1791.52 161.567 1803.11 164.022 1814.86 164.354L1831.3 164.819L1849.27 165.517C1853.79 165.692 1858.25 164.415 1862 161.872V161.872C1863.84 160.619 1865.48 159.084 1866.85 157.321L1869.54 153.847C1871.11 151.821 1872.99 150.056 1875.11 148.615V148.615C1877.7 146.856 1880.61 145.612 1883.67 144.953L1898.47 141.768C1904.75 140.415 1910.29 136.721 1913.95 131.437V131.437L1921.79 121.761V121.761C1928.38 115.363 1936.08 110.217 1944.52 106.572L1947.44 105.311L1958.12 100.473L1967.24 96.8171C1971.58 95.0728 1976.18 94.0366 1980.86 93.748V93.748C1986.55 93.3968 1992.25 94.1589 1997.65 95.9916L2005.15 98.538L2010.41 100.85C2014.89 102.818 2018.74 105.989 2021.53 110.01V110.01C2022.48 111.39 2023.31 112.858 2023.98 114.393L2025.83 118.579C2026.76 120.683 2027.31 122.937 2027.44 125.233V125.233C2027.76 130.994 2030.67 136.3 2035.35 139.676L2039.35 142.564V142.564C2048.23 150.176 2054.98 159.952 2058.97 170.943L2062.23 179.942C2063.59 183.701 2064.29 187.668 2064.29 191.666V193.563C2064.29 197.57 2065.21 201.524 2066.97 205.121L2067.2 205.585C2068.57 208.377 2070.48 210.87 2072.82 212.923L2074.51 214.412C2078.86 218.231 2084.71 219.856 2090.4 218.825V218.825C2091.52 218.624 2092.65 218.522 2093.78 218.522H2105.58C2108.84 218.522 2112.01 219.576 2114.63 221.526V221.526C2116.66 223.047 2119.05 224.029 2121.56 224.383L2138.39 226.747L2146.48 226.966C2152.93 227.141 2159.31 228.285 2165.42 230.359L2168.58 231.432C2172.66 232.816 2176.5 234.811 2179.98 237.35L2195.64 248.78C2200.22 252.128 2206.39 252.346 2211.2 249.33V249.33C2212.06 248.79 2212.98 248.347 2213.94 248.007L2219.76 245.944C2225.81 243.8 2232.13 242.499 2238.54 242.078L2241.54 241.88C2247.81 241.468 2254.1 241.701 2260.32 242.575L2271.63 244.164H2290.53C2301.26 244.164 2311.57 239.985 2319.27 232.513V232.513C2321.23 230.609 2323.38 228.904 2325.68 227.425L2349.3 212.233L2371.39 199.654L2394.19 184.656L2406.3 178.366V178.366C2415.19 173.602 2425.11 171.109 2435.2 171.109H2439.07H2475.41L2485.68 171.913C2491.14 172.341 2496.49 173.717 2501.49 175.977V175.977C2504.99 177.564 2508.29 179.572 2511.31 181.958L2539.87 204.529C2546.73 209.955 2552.73 216.399 2557.65 223.637L2561.43 229.19C2562.51 230.782 2563.41 232.489 2564.11 234.28L2565.2 237.045C2565.66 238.233 2565.9 239.497 2565.9 240.772V242.12C2565.9 244.332 2566.9 246.426 2568.61 247.823V247.823C2569.18 248.284 2569.81 248.658 2570.48 248.933L2573.65 250.222C2575.6 251.019 2577.47 252.019 2579.22 253.206L2580.5 254.078C2582.16 255.205 2583.68 256.536 2585 258.039V258.039C2586.51 259.746 2588.26 261.23 2590.18 262.445L2591.75 263.433C2595.39 265.729 2598.6 268.643 2601.24 272.044L2602.75 273.998C2603.84 275.393 2605.04 276.691 2606.35 277.875V277.875C2610.64 281.766 2613.73 286.815 2615.23 292.415L2617.2 299.802V299.802C2619.01 308.685 2624.69 316.296 2632.7 320.55L2636.44 322.54L2638.56 324.057C2646.13 329.467 2652.86 335.966 2658.53 343.344V343.344L2665.67 354.179C2668.98 359.202 2671.83 364.513 2674.18 370.048L2677.11 376.916C2678.96 381.285 2681.41 385.382 2684.37 389.093V389.093C2687.55 393.084 2690.14 397.518 2692.04 402.255L2692.67 403.819C2696 412.113 2701.03 419.617 2707.44 425.846L2768.6 485.27C2779.53 495.881 2793.37 502.988 2808.35 505.681V505.681C2824.86 508.649 2841.9 506.102 2856.82 498.433L2962.78 443.976L2988.18 426.132C2998.58 418.825 3006.7 408.722 3011.6 396.992L3014.03 391.179C3016.41 385.491 3020.06 380.424 3024.7 376.37V376.37C3029.88 371.845 3036.14 368.725 3042.87 367.306L3047.46 366.339C3051.32 365.525 3055.09 364.321 3058.71 362.745L3080.41 353.293C3087.47 350.219 3094.15 346.339 3100.31 341.732L3126.66 322.057L3164.01 292.545C3165.22 291.583 3166.59 290.819 3168.04 290.28L3168.67 290.045C3171.89 288.856 3174.5 286.459 3175.97 283.366V283.366C3176.81 281.605 3177.25 279.68 3177.25 277.73V275.329C3177.25 271.695 3178.08 268.11 3179.68 264.848L3180.81 262.548L3182.72 259.083C3184.26 256.297 3186.6 254.036 3189.44 252.591V252.591C3192.18 251.196 3194.45 249.037 3195.99 246.375L3199.89 239.637C3200.94 237.821 3202.17 236.115 3203.56 234.543V234.543C3207.77 229.779 3210.44 223.856 3211.23 217.548L3212.48 207.566C3213.19 201.842 3215.96 196.574 3220.28 192.744V192.744C3221.98 191.23 3223.46 189.478 3224.66 187.543L3226.35 184.839C3229.21 180.252 3232.99 176.314 3237.47 173.278L3237.58 173.202C3239.15 172.131 3240.65 170.939 3242.04 169.638V169.638C3244.43 167.403 3247.11 165.496 3250.01 163.967L3251.83 163.007C3256.23 160.679 3260.95 158.992 3265.84 157.998L3279.85 155.143V155.143C3288.83 153.218 3297.48 150.015 3305.55 145.632L3307.64 144.5V144.5C3319.83 139.405 3333.02 137.134 3346.21 137.856L3359.55 138.587C3366.72 138.98 3373.83 140.143 3380.75 142.057L3389.58 144.5L3403.74 148.989C3408.34 150.446 3412.13 153.747 3414.2 158.103V158.103C3416.63 163.223 3421.4 166.836 3426.99 167.784L3440.14 170.017C3442.52 170.421 3444.84 171.12 3447.05 172.097L3454.45 175.373C3458.02 176.955 3460.66 180.105 3461.59 183.901V183.901C3462.85 189.011 3467.14 192.805 3472.37 193.422L3477.4 194.017C3479.16 194.225 3480.86 194.774 3482.41 195.633V195.633C3485.89 197.57 3488.35 200.94 3489.13 204.85L3492.09 219.664C3493.03 224.334 3496.42 228.13 3500.95 229.579V229.579C3504.02 230.559 3506.62 232.635 3508.25 235.409L3508.61 236.011C3509.52 237.563 3510.15 239.267 3510.46 241.042L3510.72 242.536C3512.04 250.202 3517.12 256.695 3524.24 259.836L3524.82 260.093C3526.33 260.761 3527.91 261.273 3529.52 261.622L3535.92 263.004C3540.47 263.986 3544.86 265.566 3548.99 267.703L3553.2 269.879C3556.19 271.429 3558.88 273.521 3561.11 276.049V276.049C3563.81 279.105 3567.16 281.517 3570.92 283.108L3612.59 300.769L3649.95 314.776C3656.85 317.364 3664.02 319.181 3671.32 320.194L3706.82 325.119C3719.88 326.93 3733.16 326.142 3745.91 322.8L3753.03 320.936C3762.43 318.471 3771.43 314.647 3779.73 309.584L3795.73 299.833C3799.99 297.235 3804.43 294.96 3809.03 293.027L3862.41 270.592C3872.01 266.556 3880.76 260.745 3888.21 253.464L3888.51 253.167C3892.66 249.113 3897.24 245.527 3902.17 242.476L3909.31 238.058C3920.61 231.068 3929.06 220.292 3933.16 207.652V207.652C3934.15 204.583 3935.41 201.606 3936.92 198.754L3948.19 177.398L3955.32 161.433L3959.19 152.746C3961.34 147.936 3964.37 143.571 3968.12 139.875V139.875C3973.72 134.359 3977.67 127.388 3979.52 119.747L3982.09 109.174C3984.6 98.8032 3990.34 89.4961 3998.47 82.5907V82.5907C4001.52 80.0073 4004.86 77.7943 4008.42 75.9981L4015.75 72.3062C4022 69.1603 4027.89 65.3682 4033.35 60.992L4053.49 44.8285C4060.66 39.0741 4068.8 34.652 4077.54 31.7723L4078.33 31.5108C4085.58 29.1204 4093.16 27.9022 4100.79 27.9022V27.9022C4108.26 27.9022 4115.69 26.734 4122.81 24.44L4129.71 22.2139C4136.93 19.8854 4144.39 18.386 4151.95 17.7445L4172.09 16.0348C4177.67 15.5613 4183.28 15.5571 4188.86 16.0224L4221.09 18.7099L4235.29 21.3403C4241.46 22.4822 4247.4 24.6037 4252.9 27.6245V27.6245C4257.32 30.0573 4261.42 33.0504 4265.08 36.53L4273.81 44.8354L4288.78 56.9306L4298.45 65.4285C4300.07 66.8567 4301.81 68.1517 4303.64 69.3009V69.3009C4307.94 71.996 4312.71 73.8545 4317.7 74.7786L4324 75.9447C4325.22 76.1697 4326.45 76.2829 4327.68 76.2829V76.2829C4338.86 76.2829 4347.91 85.3406 4347.91 96.5138V461.635V654.311V750.649V798.818V822.902V834.945V840.966V2238.09C4347.91 2250.19 4338.1 2260 4326 2260V2260L1641.5 2275.5V2275.5C1625.12 2275.5 1611.84 2262.22 1611.84 2245.84V841.627V836.267V825.548V804.109V761.232V675.477V503.968V254.442Z" fill="url(#paint1_linear_292_902)"/>
<defs>
<linearGradient id="paint0_linear_292_902" x1="805.963" y1="1.44325e-06" x2="800.107" y2="843.511" gradientUnits="userSpaceOnUse">
<stop stop-color="#384351"/>
<stop offset="0.6" stop-color="#384351"/>
<stop offset="0.75" stop-color="#676D77"/>
<stop offset="1" stop-color="#F4ECDD"/>
</linearGradient>
<linearGradient id="paint1_linear_292_902" x1="2979.88" y1="15.3232" x2="2979.88" y2="846.987" gradientUnits="userSpaceOnUse">
<stop stop-color="#384351"/>
<stop offset="0.6" stop-color="#384351"/>
<stop offset="0.75" stop-color="#676D77"/>
<stop offset="1" stop-color="#F4ECDD"/>
</linearGradient>
</defs>
</svg>
