<svg width="4438" height="1945" viewBox="0 0 4438 1945" fill="none" xmlns="http://www.w3.org/2000/svg">
<g filter="url(#filter0_f_292_900)">
<path d="M46 212C46 150.719 102.097 104.779 162.175 116.858L469.549 178.658C502.022 185.187 535.251 187.124 568.263 184.411L730.974 171.042C779.925 167.019 829.106 166.609 878.117 169.814L1000.52 177.818C1078.45 182.914 1156.71 176.968 1232.97 160.158L1420.25 118.878C1484.46 104.723 1551.59 113.046 1610.41 142.453V142.453C1666.27 170.387 1729.73 179.335 1791.14 167.941L1999.84 129.22C2114.57 107.934 2232.29 108.666 2346.75 131.377L2484.63 158.737C2574.12 176.495 2665.62 181.923 2756.59 174.867L3029.13 153.729C3078.31 149.915 3127.7 149.745 3176.91 153.219L3538.5 178.756C3602.02 183.242 3665.83 181.65 3729.04 174.003L3830.18 161.768C3905.78 152.623 3979.99 134.329 4051.17 107.286L4192.11 53.7453C4205.59 48.6245 4219.89 46 4234.31 46H4328.03C4360.08 46 4383.2 76.6861 4374.37 107.488V107.488C4373.13 111.808 4372.5 116.28 4372.5 120.775V181.6C4372.5 209.437 4375.77 237.177 4382.25 264.25V264.25C4388.73 291.323 4392 319.063 4392 346.9V884.465C4392 1434.41 3947.92 1881.16 3397.98 1884.45L1051.98 1898.48C497.37 1901.8 46 1453.12 46 898.5V384V212V212Z" fill="#D9D9D9" fill-opacity="0.5"/>
</g>
<defs>
<filter id="filter0_f_292_900" x="0.200001" y="0.200001" width="4437.6" height="1944.1" filterUnits="userSpaceOnUse" color-interpolation-filters="sRGB">
<feFlood flood-opacity="0" result="BackgroundImageFix"/>
<feBlend mode="normal" in="SourceGraphic" in2="BackgroundImageFix" result="shape"/>
<feGaussianBlur stdDeviation="22.9" result="effect1_foregroundBlur_292_900"/>
</filter>
</defs>
</svg>
