<svg width="4344" height="2152" viewBox="0 0 4344 2152" fill="none" xmlns="http://www.w3.org/2000/svg">
<path d="M0 12.1269C0 6.07977 5.8255 1.73994 11.6197 3.47053V3.47053C13.0842 3.90797 14.4139 4.70984 15.4841 5.8011L19.3107 9.70272C23.6801 14.1579 29.3567 17.1577 35.4955 18.2781V18.2781C39.2105 18.9562 42.7875 20.3243 46.0027 22.3049L47.8097 23.4181C52.2767 26.1698 56.1841 29.74 59.3269 33.941L77.6996 58.5003C81.2628 63.2633 85.8654 67.151 91.1573 69.8676V69.8676C94.7295 71.7014 97.9981 74.0743 100.848 76.9029L123.511 99.3954C128.505 104.351 131.001 106.829 133.658 109.12C136.02 111.156 138.475 113.08 141.015 114.886C143.875 116.919 146.878 118.751 152.883 122.415L166.23 130.559L194.774 145.729V145.729C203.014 150.842 209.704 158.105 214.124 166.736L217.022 172.393L223.202 184.025C225.296 187.965 226.342 189.936 227.473 191.852C229.674 195.585 232.115 199.17 234.782 202.586C236.151 204.34 237.6 206.036 240.5 209.427V209.427C242.932 212.273 244.149 213.696 245.415 215.07C247.881 217.746 250.491 220.284 253.234 222.675C254.642 223.903 256.098 225.08 259.01 227.433L279.853 244.276C284.464 248.002 286.77 249.865 289.177 251.585C291.316 253.114 293.514 254.557 295.767 255.913C298.302 257.438 300.928 258.813 306.179 261.564L339.511 279.022C346.46 282.662 354.188 284.563 362.032 284.563V284.563C375.56 284.563 388.475 290.209 397.662 300.14L434.488 339.95C439.665 345.546 442.254 348.345 445.038 350.93C447.513 353.228 450.102 355.399 452.796 357.434C455.828 359.725 459.035 361.786 465.449 365.907L542.8 415.608C550.013 420.243 553.62 422.561 557.395 424.554C560.75 426.325 564.203 427.904 567.737 429.283C571.715 430.835 575.827 432.047 584.051 434.471L696.192 467.529L818.548 495.285C823.847 496.488 828.965 498.381 833.771 500.918L840.55 504.497C865.699 517.773 896.837 509.195 911.64 484.914V484.914C918.47 473.711 929.157 465.389 941.691 461.511L999.477 443.632L1119.95 388.458L1367.67 314.206C1377.69 311.202 1382.71 309.699 1387.51 307.697C1391.77 305.919 1395.91 303.847 1399.88 301.496C1404.36 298.851 1408.57 295.736 1416.97 289.506L1465.84 253.302L1496.99 227.105C1501.32 223.463 1503.49 221.641 1505.53 219.722C1513.42 212.291 1520.05 203.627 1525.16 194.068C1526.48 191.599 1527.67 189.033 1530.06 183.901L1549.2 142.716C1552.25 136.157 1557.97 131.225 1564.91 129.18V129.18V129.18C1572.28 126.298 1577.78 120.006 1579.65 112.32L1580.89 107.213C1581.43 105.021 1582.37 102.951 1583.68 101.111L1584.41 100.079C1586.45 97.2059 1589.47 95.1761 1592.9 94.3709V94.3709C1599.95 92.7168 1607.14 96.5272 1609.72 103.29L1664.86 247.491C1667.68 254.874 1669.09 258.565 1670.15 262.075C1679.61 293.544 1673 327.651 1652.48 353.313C1650.19 356.175 1647.5 359.073 1642.12 364.867V364.867C1638.67 368.595 1636.94 370.459 1635.35 372.344C1621.31 389.067 1613.12 409.928 1612.05 431.741C1611.93 434.2 1611.93 436.742 1611.93 441.827V554.989L1625.36 712.556L1614.81 1987.82C1614.35 2043.41 1614.12 2071.2 1603.16 2092.41C1593.52 2111.07 1578.24 2126.22 1559.5 2135.71C1538.2 2146.5 1510.41 2146.5 1454.82 2146.5H160C103.995 2146.5 75.9921 2146.5 54.6009 2135.6C35.7847 2126.01 20.4867 2110.72 10.8993 2091.9C0 2070.51 0 2042.51 0 1986.5V711.763V710.812V709.421V706.639V701.075V689.946V667.69V623.177V534.152V356.101V12.1269Z" fill="url(#paint0_linear_292_897)"/>
<path d="M1607.84 321.783C1607.84 315.292 1613.1 310.029 1619.59 310.029V310.029C1620.31 310.029 1621.02 310.094 1621.72 310.223L1622.14 310.3C1627.85 311.35 1633.69 309.307 1637.5 304.927L1642.04 299.717L1653.5 288.745C1654.41 287.877 1655.41 287.113 1656.48 286.465V286.465C1662.4 282.896 1669.89 283.26 1675.43 287.387L1681.82 292.143C1683.32 293.261 1684.71 294.522 1685.97 295.909L1692.88 303.527C1694.13 304.911 1695.23 306.429 1696.15 308.054L1698.8 312.714C1700.33 315.404 1702.83 317.402 1705.79 318.295V318.295C1709.98 319.558 1714.53 318.449 1717.66 315.398L1722.37 310.812C1723.91 309.315 1725.65 308.039 1727.54 307.02L1734.79 303.108C1738.92 300.882 1743.54 299.717 1748.23 299.717V299.717C1752.89 299.717 1757.48 300.87 1761.59 303.074L1775.49 310.524C1779.14 312.477 1783.02 313.947 1787.05 314.894V314.894C1801.62 318.323 1816.95 314.68 1828.42 305.065L1829 304.583C1833.99 300.399 1838.09 295.26 1841.08 289.469L1841.77 288.13C1843.51 284.732 1845.6 281.52 1848 278.545L1851.2 274.585C1856.06 268.552 1862.57 264.055 1869.93 261.638V261.638C1872.38 260.835 1874.9 260.269 1877.45 259.948L1880.98 259.506C1891.32 258.211 1900.73 252.883 1907.16 244.683V244.683C1909.95 241.13 1912.11 237.125 1913.54 232.843L1915.65 226.546L1924.91 203.956L1935.06 182.103L1938.51 175.996C1943.66 166.865 1950.22 158.601 1957.94 151.507L1967.66 142.571L1997.49 115.54C2003.24 110.334 2009.57 105.814 2016.36 102.07L2031.08 93.9543L2049.25 86.5882L2068.13 81.6774L2083.91 79.1477C2093.76 77.5692 2103.79 77.4729 2113.66 78.8622L2133.68 81.6774L2143.07 83.5443C2161.16 87.1403 2177.9 95.668 2191.44 108.185L2202.08 118.017V118.017C2211.31 127.236 2223.39 133.043 2236.35 134.484L2243.82 135.314C2247.54 135.728 2251.12 136.938 2254.33 138.863V138.863C2258.37 141.289 2263 142.571 2267.71 142.571H2273.72C2276.31 142.571 2278.89 142.782 2281.44 143.201L2286.23 143.986C2290.45 144.678 2294.72 145.027 2299 145.027H2303.89C2307.73 145.027 2311.55 145.543 2315.24 146.563V146.563C2318.64 147.499 2321.91 148.853 2324.97 150.593L2325.44 150.859C2330.1 153.499 2335.16 155.327 2340.43 156.263L2346.87 157.408C2351.95 158.312 2356.81 160.19 2361.18 162.94L2362.84 163.989C2368.14 167.322 2374.27 169.089 2380.52 169.089H2385.68C2389.53 169.089 2393.27 170.34 2396.35 172.651V172.651C2398.39 174.187 2400.74 175.264 2403.24 175.807L2405.72 176.348C2410.48 177.384 2415.43 177.152 2420.07 175.675V175.675C2421.52 175.214 2423.01 174.873 2424.51 174.654L2427.14 174.273C2432.8 173.451 2438.58 174.152 2443.89 176.302V176.302C2446.55 177.382 2449.35 178.101 2452.2 178.44L2459.43 179.299C2465.31 179.998 2470.73 182.839 2474.65 187.28V187.28C2477.21 190.171 2480.42 192.407 2484.01 193.8L2501.34 200.519V200.519C2521 207.293 2536.14 223.2 2541.93 243.169L2542.87 246.396C2545.09 254.06 2548.6 261.289 2553.25 267.777L2573.3 295.788L2580.96 307.065C2586.26 314.87 2592.93 321.657 2600.63 327.101V327.101C2611.68 334.904 2624.55 339.725 2638 341.098L2644.65 341.777C2652.16 342.544 2659.74 342.457 2667.24 341.518L2687.31 339.003H2701.44C2711.44 339.003 2721.38 340.502 2730.93 343.45L2745.55 347.963C2757.91 351.775 2770.88 353.156 2783.76 352.029L2794.28 351.108C2804.14 350.245 2814.07 350.85 2823.75 352.902L2845.2 357.453C2852.02 358.899 2858.98 359.628 2865.95 359.628H2877.04C2885.42 359.628 2893.77 360.681 2901.89 362.763L2920.3 367.486L2936.91 371.574C2952.22 375.342 2968.21 375.437 2983.56 371.85L3002.24 367.486L3042.14 353.735L3064.67 346.458C3079.83 341.559 3095.95 340.355 3111.67 342.947L3134.81 346.76C3147.03 348.774 3159.51 348.501 3171.63 345.955L3271.17 325.044C3281.35 322.905 3291.14 319.188 3300.18 314.03L3320.58 302.386C3328.25 298.007 3336.47 294.663 3345.02 292.443L3377.45 284.026C3383.8 282.377 3389.98 280.107 3395.88 277.248L3408.07 271.353C3416.24 267.396 3425.21 265.341 3434.29 265.341V265.341C3447.08 265.341 3459.54 261.267 3469.86 253.71L3475.97 249.233C3484.04 243.323 3490.99 236.009 3496.47 227.641L3511.73 204.337C3520.14 191.488 3531.4 180.749 3544.64 172.955L3545.75 172.299C3557.59 165.324 3567.87 155.981 3575.94 144.855L3581.4 137.329C3588.49 127.559 3597.93 119.735 3608.84 114.581L3619.91 109.354C3626.9 106.053 3632.62 100.557 3636.19 93.7025V93.7025C3639.11 88.0808 3643.5 83.3487 3648.88 80.001L3669.87 66.945L3672.27 65.6239C3687.05 57.4707 3703.67 53.1948 3720.55 53.1948H3721.89L3733.81 54.5398C3751.66 56.5524 3768.63 63.3333 3782.95 74.1704L3786.08 76.5371C3793.6 82.2271 3800.27 88.9517 3805.91 96.5113L3833.45 133.459C3836.02 136.908 3838.9 140.114 3842.05 143.038L3859.07 158.816C3869.63 168.61 3885.04 171.109 3898.15 165.156V165.156C3903.13 162.898 3907.52 159.528 3910.99 155.307L3922.77 140.976C3927.54 135.183 3932.94 129.944 3938.87 125.358L3967.86 102.956C3973.84 98.3363 3980.87 95.2649 3988.32 94.0156V94.0156C3998.07 92.3817 4007.02 87.643 4013.86 80.5053L4020.16 73.924C4024.6 69.2914 4029.62 65.2609 4035.11 61.936L4077.95 35.9624C4083.28 32.7321 4089.01 30.2106 4094.99 28.4617L4098.05 27.5669C4105.6 25.3606 4112.6 21.6051 4118.61 16.5403V16.5403C4125.27 10.9328 4133.13 6.9377 4141.59 4.86611L4149.88 2.83251C4157.13 1.05609 4164.57 0.158203 4172.03 0.158203H4172.5C4178.46 0.158203 4184.41 0.708882 4190.27 1.80323L4202.36 4.05863C4211.17 5.70377 4219.66 8.74856 4227.51 13.0775L4233.27 16.2538C4238.12 18.9253 4243.4 20.7211 4248.87 21.5588L4256.25 22.6899C4262.7 23.6773 4269.29 22.3028 4274.8 18.8192V18.8192L4282.64 14.8906V14.8906C4294.87 10.5181 4308.5 11.6523 4319.89 17.9054V17.9054C4334.62 25.9929 4343.91 41.5399 4343.91 58.3443V371.905V542.31V627.512V670.113V691.414V702.064V707.389V710.052V711.383V2039.95C4343.91 2095 4299.41 2139.7 4244.36 2139.94L1649.92 2151.53C1592.81 2151.79 1547.08 2104.24 1549.57 2047.17L1607.84 711.141V709.568V706.422V700.13V687.546V662.379V612.043V511.372V321.783Z" fill="url(#paint1_linear_292_897)"/>
<defs>
<linearGradient id="paint0_linear_292_897" x1="805.962" y1="0" x2="805.962" y2="713.476" gradientUnits="userSpaceOnUse">
<stop stop-color="#454F5C"/>
<stop offset="0.8" stop-color="#4B535D"/>
<stop offset="1" stop-color="#F4ECDD"/>
</linearGradient>
<linearGradient id="paint1_linear_292_897" x1="2975.88" y1="0.158203" x2="2975.88" y2="712.714" gradientUnits="userSpaceOnUse">
<stop stop-color="#454F5C"/>
<stop offset="0.8" stop-color="#4B535D"/>
<stop offset="1" stop-color="#F4ECDD"/>
</linearGradient>
</defs>
</svg>
