<svg width="4348" height="2509" viewBox="0 0 4348 2509" fill="none" xmlns="http://www.w3.org/2000/svg">
<path d="M4348 670.711C4348 624.881 4312.86 586.709 4267.18 582.929V582.929L4186.37 576.241L4024.73 562.865L3701.46 536.112L3054.92 482.605L2580.52 412.814C2573.7 411.81 2567 410.104 2560.53 407.722L2197.51 274.087L2090.05 227.767L2039.25 205.13L1988.04 186.323L1955.73 172.782C1949.58 170.207 1943.71 167.024 1938.19 163.281L1900.31 137.554L1864.06 113.29C1856.36 108.138 1847.98 104.081 1839.17 101.234L1805.38 90.3197C1800.11 88.6185 1794.99 86.483 1790.08 83.9352L1778.13 77.7354C1770.9 73.9868 1763.24 71.1353 1755.32 69.2441L1747.36 67.3457C1741.18 65.8693 1735.15 63.8067 1729.36 61.1857L1724.32 58.9044C1719.64 56.7883 1715.18 54.2251 1711 51.2505V51.2505C1705.42 47.2833 1699.35 44.052 1692.95 41.6365L1684.13 38.3095L1679.19 37.0297C1673.92 35.6598 1668.76 33.8604 1663.77 31.6494L1650.04 25.5616C1644.57 23.1357 1639.33 20.2237 1634.38 16.8607L1626.77 11.6849C1621.73 8.26267 1616.25 5.53669 1610.49 3.58099V3.58099C1603.5 1.20969 1596.16 0 1588.78 0H1587.03C1577.59 0 1568.23 1.70757 1559.4 5.0402L1559.17 5.12914L1549.35 9.16929C1546.84 10.2045 1544.25 11.0374 1541.6 11.6601V11.6601C1533.79 13.4975 1525.66 13.4708 1517.87 11.5824L1516.89 11.3463C1512.63 10.3138 1508.2 9.792 1503.82 9.792V9.792C1497.05 9.792 1490.25 11.0074 1483.91 13.3804L1460.67 22.0795C1449.7 26.1865 1437.62 26.2401 1426.62 22.2304L1426.09 22.0373C1418.32 19.2083 1409.95 18.4752 1401.81 19.9116V19.9116C1394.35 21.228 1387.32 24.3259 1381.31 28.9419L1367.98 39.194C1360.36 45.0523 1351.93 49.7812 1342.96 53.2347L1334.16 56.6207C1328.49 58.8037 1323.03 61.4991 1317.85 64.6733L1288.7 82.5325L1269.15 91.0317C1258.75 95.5531 1249.2 101.81 1240.9 109.536L1211.98 136.449C1207.45 140.667 1202.53 144.455 1197.3 147.765L1144.61 181.083C1139.1 184.568 1133.94 188.584 1129.21 193.073L1097.98 222.72C1094.44 226.08 1090.66 229.177 1086.67 231.985L940.248 334.972C935.249 338.489 929.938 341.539 924.383 344.085L524.274 527.475C506.228 535.746 486.127 538.459 466.534 535.269L248.295 499.727L124.147 479.509L62.0737 469.4V469.4C29.5366 464.101 0 489.217 0 522.183V2409C0 2464.23 44.7715 2509 100 2509H4248C4303.23 2509 4348 2464.23 4348 2409V670.711Z" fill="url(#paint0_linear_292_888)"/>
<defs>
<linearGradient id="paint0_linear_292_888" x1="2174" y1="0" x2="2174" y2="843.977" gradientUnits="userSpaceOnUse">
<stop stop-color="#31373F"/>
<stop offset="0.4" stop-color="#525B66"/>
<stop offset="1" stop-color="#A8ABAB"/>
</linearGradient>
</defs>
</svg>
