<svg width="4357" height="1962" viewBox="0 0 4357 1962" fill="none" xmlns="http://www.w3.org/2000/svg">
<g filter="url(#filter0_f_292_896)">
<path d="M80.1481 340.019C107.629 196.516 233.151 92.75 379.262 92.75V92.75C407.615 92.75 435.829 96.7093 463.087 104.513L519.183 120.574C574.914 136.529 634.029 136.332 689.652 120.005V120.005C750.077 102.267 814.502 103.599 874.143 123.817L896.761 131.484C1001.7 167.058 1116.91 155.27 1212.47 99.1844L1231.53 88.0011C1310.14 41.8635 1401.38 21.9005 1492.07 30.994L1540.75 35.875L1729 54.75H1959.61C2048.48 54.75 2136.94 66.594 2222.67 89.9691L2289.83 108.281C2375.56 131.656 2464.02 143.5 2552.89 143.5H2691.7C2765.67 143.5 2839.42 135.292 2911.58 119.027L2995.57 100.094C3128.3 70.1795 3266.02 67.7173 3399.75 92.75V92.75L3765.22 120.056C3872.16 128.046 3910.97 265.099 3824.09 327.967V327.967C3766.31 369.784 3760.12 453.566 3811.12 503.425L4167.46 851.729C4286.89 968.471 4344.94 1134.29 4324.41 1300.04L4318.6 1346.9C4279.87 1659.51 4016.25 1895.52 3701.27 1899.57L1064.64 1933.45C537.538 1940.23 95.6929 1536.66 54.8049 1011.1L30.9046 703.896C26.9858 653.524 29.8152 602.855 39.3178 553.233L80.1481 340.019Z" fill="#D9D9D9" fill-opacity="0.5"/>
</g>
<defs>
<filter id="filter0_f_292_896" x="0.895313" y="0.548634" width="4355.88" height="1961.29" filterUnits="userSpaceOnUse" color-interpolation-filters="sRGB">
<feFlood flood-opacity="0" result="BackgroundImageFix"/>
<feBlend mode="normal" in="SourceGraphic" in2="BackgroundImageFix" result="shape"/>
<feGaussianBlur stdDeviation="14.15" result="effect1_foregroundBlur_292_896"/>
</filter>
</defs>
</svg>
