<svg width="4006" height="3216" viewBox="0 0 4006 3216" fill="none" xmlns="http://www.w3.org/2000/svg">
<path d="M0 1719.16C0 1703.86 16.4692 1694.23 29.8012 1701.72L91.2031 1736.24C94.9664 1738.36 97.9441 1741.63 99.6912 1745.58L172.437 1909.97C173.47 1912.3 174.938 1914.41 176.765 1916.2L246.243 1983.93C248.064 1985.71 249.53 1987.82 250.562 1990.14L282.997 2063.23C284.935 2067.6 288.371 2071.13 292.685 2073.18L337.976 2094.73C344.211 2097.7 351.535 2097.24 357.35 2093.52L403.071 2064.25C407.804 2061.23 411.044 2056.35 411.999 2050.81L427.682 1959.84C427.894 1958.62 428.219 1957.41 428.654 1956.25L453.557 1889.53C454.183 1887.85 454.581 1886.1 454.74 1884.31L465.609 1762.87C465.867 1759.99 466.744 1757.2 468.181 1754.7L482.849 1729.12C484.586 1726.09 485.5 1722.66 485.5 1719.17V1680.87C485.5 1671.81 491.597 1663.88 500.358 1661.55L526.691 1654.54C534.705 1652.41 543.204 1655.44 548.055 1662.17L556.778 1674.27C568.131 1690.01 593 1681.98 593 1662.57V1616.53C593 1611.08 595.222 1605.87 599.153 1602.1L623.847 1578.4C627.778 1574.63 630 1569.42 630 1563.97V1535.99C630 1525.76 637.721 1517.18 647.895 1516.11L699.308 1510.66C701.423 1510.44 703.488 1509.88 705.426 1509.01L810.579 1461.58C813.163 1460.41 815.966 1459.81 818.802 1459.81H900L1008.22 1444.5C1015.23 1443.51 1019.1 1452.36 1013.63 1456.84V1456.84C1011.43 1458.64 1010.54 1461.58 1011.36 1464.29L1032.32 1533.28C1032.77 1534.75 1033.39 1536.17 1034.17 1537.51L1084.72 1624.54C1088.3 1630.71 1094.89 1634.5 1102.01 1634.5H1110.49C1115.63 1634.5 1120.58 1636.48 1124.3 1640.03L1147.43 1662.1C1149.78 1664.33 1151.54 1667.1 1152.58 1670.17L1187.26 1772.82C1187.75 1774.27 1188.41 1775.66 1189.21 1776.96L1238.79 1856.93C1239.59 1858.23 1240.55 1859.43 1241.63 1860.52L1282.8 1901.8C1283.6 1902.6 1284.33 1903.46 1284.98 1904.39L1339.78 1982.06C1341.89 1985.04 1344.77 1987.39 1348.12 1988.86L1380.88 2003.15C1387.72 2006.13 1395.64 2005.07 1401.44 2000.39L1413 1991.06C1416.56 1988.19 1420.99 1986.62 1425.56 1986.62H1473.15C1480.46 1986.62 1487.18 1982.64 1490.69 1976.23L1502.15 1955.33C1507.36 1945.83 1519.17 1942.2 1528.81 1947.14L1532.23 1948.9C1542.05 1953.93 1554.09 1950.06 1559.14 1940.25L1566.53 1925.88C1567.18 1924.63 1567.95 1923.45 1568.84 1922.37L1603.85 1879.56C1605.27 1877.82 1606.98 1876.33 1608.9 1875.16L1627.29 1863.91C1632.48 1860.74 1635.94 1855.37 1636.7 1849.34L1651 1735.5V1573L1664 1474.96V1347.91C1664 1346.31 1664.19 1344.71 1664.57 1343.16L1687.75 1248.54C1690.89 1235.7 1705.41 1229.38 1716.94 1235.84L1766.57 1263.62C1771.02 1266.11 1774.35 1270.21 1775.88 1275.08L1797.2 1342.95C1797.73 1344.64 1798.49 1346.26 1799.45 1347.75L1830.5 1396.16C1831.5 1397.71 1832.27 1399.4 1832.81 1401.16L1860.66 1493.09C1861.54 1495.99 1863.07 1498.66 1865.13 1500.88L1895.21 1533.35C1902.95 1541.7 1916.82 1538.63 1920.32 1527.8V1527.8C1921.97 1522.67 1926.27 1518.84 1931.55 1517.78L1972.57 1509.51C1980.16 1507.98 1987.95 1510.96 1992.57 1517.17L2013.93 1545.86C2016.87 1549.81 2018.25 1554.71 2017.8 1559.62L2010.87 1635.46C2010.63 1638.13 2010.92 1640.82 2011.74 1643.37L2034 1713L2058.99 1822.04C2059.33 1823.51 2059.5 1825.01 2059.5 1826.51V2001.56C2059.5 2005.75 2060.81 2009.83 2063.25 2013.23L2094.49 2056.74C2096.14 2059.04 2097.29 2061.67 2097.85 2064.45L2113.26 2140.89C2115.15 2150.22 2123.35 2156.93 2132.87 2156.93H2165.35C2168.49 2156.93 2171.59 2156.19 2174.4 2154.77L2193.33 2145.17C2195.86 2143.89 2198.09 2142.08 2199.87 2139.86L2216.61 2119.04C2218.32 2116.9 2219.58 2114.44 2220.31 2111.79L2225.57 2092.58C2226.33 2089.81 2227.67 2087.24 2229.52 2085.03L2247.27 2063.8C2249.24 2061.45 2251.71 2059.59 2254.51 2058.35L2278.94 2047.51C2281.49 2046.38 2284.25 2045.8 2287.04 2045.8H2302.98C2304.22 2045.8 2305.45 2045.91 2306.67 2046.14L2331.63 2050.83C2336.62 2051.77 2341.78 2050.78 2346.06 2048.05L2358.71 2040C2360.18 2039.06 2361.78 2038.32 2363.44 2037.79L2396.14 2027.5C2401.47 2025.82 2405.85 2022 2408.23 2016.95L2421.6 1988.59C2422.22 1987.28 2422.69 1985.91 2423.01 1984.5L2433.54 1938.27L2440.53 1916.12C2440.88 1915.01 2441.32 1913.94 2441.86 1912.91L2453.07 1891.36L2458.97 1880.03C2460.04 1877.98 2461.45 1876.13 2463.15 1874.56L2471.13 1867.2C2472.44 1865.99 2473.91 1864.97 2475.48 1864.15L2475.89 1863.94C2481.95 1860.79 2485.99 1854.77 2486.6 1847.97L2489.63 1814.14L2490.13 1780.95L2485.62 1727.55V1621.66C2485.62 1620.09 2485.81 1618.52 2486.18 1616.99L2489.78 1602C2490.01 1601.02 2490.17 1600.03 2490.26 1599.03L2493.14 1565.17L2490.33 1494.43C2490.2 1491.13 2489.25 1487.91 2487.57 1485.06L2484.39 1479.67C2482.58 1476.59 2481.62 1473.08 2481.62 1469.5V1435.99L2478.11 1389.09L2476.78 1366.71C2476.67 1364.8 2476.83 1362.88 2477.26 1361.01L2486.85 1319.57C2487.36 1317.34 2488.26 1315.21 2489.49 1313.29L2501.28 1294.88C2504.09 1290.5 2505.08 1285.2 2504.04 1280.11L2501.06 1265.43C2500.16 1260.99 2501.17 1256.39 2503.85 1252.74L2505.16 1250.96C2507.36 1247.97 2510.86 1246.2 2514.58 1246.2V1246.2C2518.12 1246.2 2521.47 1244.59 2523.69 1241.83L2527.41 1237.2C2529.88 1234.13 2531.38 1230.39 2531.74 1226.46L2533.2 1210.11L2534.7 1165.37V1124.59C2534.7 1122.44 2534.36 1120.31 2533.68 1118.27L2529.72 1106.38C2529.04 1104.35 2528.69 1102.21 2528.69 1100.06V1074.44L2526.19 1054.23L2527.44 948.15L2529.89 932.122C2530.09 930.783 2530.43 929.469 2530.9 928.199L2532.05 925.103C2533.45 921.313 2533.67 917.186 2532.68 913.268L2530.19 903.407L2526.64 884.188C2526.34 882.574 2526.24 880.929 2526.34 879.29L2528.69 842.066L2534.2 814.643L2540.94 794.06C2542.1 790.532 2544.22 787.395 2547.05 785.001L2557.61 776.093C2561.25 773.027 2563.67 768.767 2564.45 764.076L2570.79 725.839C2571.1 723.951 2571.68 722.117 2572.52 720.394L2598.47 666.791C2600.31 662.981 2603.32 659.855 2607.05 657.862L2630.57 645.31C2637.46 641.634 2645.85 642.301 2652.07 647.019L2668.81 659.71C2669.87 660.52 2671.02 661.222 2672.23 661.803L2681.77 666.386C2686.85 668.825 2690.3 673.723 2690.89 679.325L2691.5 685.155C2692.56 695.323 2704.41 700.335 2712.45 694.017V694.017C2714.74 692.217 2717.57 691.239 2720.48 691.239H2728.04C2735.15 691.239 2741.73 695.016 2745.31 701.159L2755.66 718.891C2757.23 721.587 2758.15 724.615 2758.34 727.731L2760.48 762.039C2760.84 767.937 2763.8 773.371 2768.55 776.883L2773.99 780.9C2778.21 784.025 2781.04 788.688 2781.86 793.881L2788.42 835.683C2788.79 837.996 2788.74 840.355 2788.29 842.652L2781.04 879.45C2780.74 880.983 2780.62 882.546 2780.68 884.108L2782.59 932.274L2780.65 983.215C2780.61 984.373 2780.66 985.533 2780.82 986.681L2787.12 1032.8C2787.39 1034.81 2787.36 1036.85 2787.02 1038.85L2783 1062.64C2782.73 1064.25 2782.65 1065.88 2782.78 1067.51L2786.09 1110.52L2782.59 1176.2L2786.09 1232.49V1246.57C2786.09 1248.71 2786.44 1250.84 2787.12 1252.88L2787.95 1255.39C2788.63 1257.43 2788.97 1259.56 2788.97 1261.7V1274.05C2788.97 1275.68 2788.77 1277.31 2788.38 1278.89L2786.69 1285.67C2786.29 1287.25 2786.09 1288.88 2786.09 1290.51V1301.81C2786.09 1305.1 2786.9 1308.33 2788.45 1311.23L2789.55 1313.29C2790.58 1315.22 2791.28 1317.3 2791.64 1319.45L2793.13 1328.46C2793.44 1330.38 2793.48 1332.33 2793.23 1334.27L2791.1 1350.84V1372.49L2788.97 1401.35L2793.83 1530.98C2794 1535.62 2800.68 1536.13 2801.56 1531.57V1531.57C2801.6 1531.36 2801.66 1531.15 2801.73 1530.95L2813.41 1499.24C2814.22 1497.02 2814.64 1494.68 2814.64 1492.33V1461.91C2814.64 1460.51 2814.79 1459.12 2815.08 1457.75L2823.56 1417.83C2823.95 1416.04 2824.91 1414.42 2826.3 1413.23V1413.23C2831.27 1408.99 2838.96 1411.84 2839.95 1418.3L2848.22 1471.94C2848.53 1473.94 2849.15 1475.89 2850.04 1477.71L2855.15 1488.11C2856.5 1490.86 2857.21 1493.87 2857.21 1496.93V1521.81C2857.21 1527.79 2859.88 1533.45 2864.49 1537.25L2866.6 1538.99C2871.69 1543.18 2874.39 1549.61 2873.81 1556.18L2870.88 1589.45C2870.78 1590.58 2870.77 1591.72 2870.87 1592.85L2874.54 1637.18C2874.67 1638.72 2874.62 1640.27 2874.39 1641.8L2870.95 1664.73C2870.8 1665.71 2870.73 1666.7 2870.73 1667.7V1700.84L2874.73 1730.43V1805.08C2874.73 1812.05 2878.37 1818.52 2884.32 1822.16L2885.71 1823.01C2887.07 1823.83 2888.52 1824.49 2890.03 1824.98L2916.85 1833.57C2921.34 1835.01 2926.2 1834.81 2930.57 1833.01L2965.98 1818.43C2969.31 1817.06 2973.01 1816.94 2976.42 1818.07V1818.07C2985.75 1821.19 2995.5 1814.6 2996.09 1804.78L2998.43 1765.79L3012.95 1684.97L3026.47 1510.32V1228.16L3030.86 1116.5C3030.94 1114.45 3031.33 1112.43 3032.02 1110.5L3064.34 1020.8C3064.8 1019.52 3065.39 1018.29 3066.1 1017.13L3099.55 962.488C3101.54 959.251 3102.56 955.516 3102.49 951.721L3098.08 678.97L3085.13 553.868C3084.76 550.257 3085.37 546.613 3086.91 543.325L3098.08 519.483L3112.6 474.018L3129.5 437.187C3131.21 433.447 3131.73 429.269 3130.99 425.223L3123.88 386.667C3123.71 385.726 3123.6 384.774 3123.57 383.818L3120.12 295.046L3123.49 206.139C3123.58 203.846 3124.06 201.585 3124.91 199.455L3149.66 137.724L3190.04 64.6489C3191.8 61.4663 3194.39 58.8234 3197.54 57.0043L3291.35 2.80304C3297.57 -0.785684 3305.22 -0.772811 3311.42 2.83678L3348.39 24.3612C3350.11 25.3592 3351.66 26.6065 3353.01 28.0623L3396.53 75.1046C3398.2 76.9036 3399.52 78.9933 3400.43 81.2694L3438.57 176.767C3438.93 177.679 3439.23 178.617 3439.45 179.573L3452.24 233.551C3452.83 236.036 3452.94 238.611 3452.56 241.137L3446.85 279.135C3446.7 280.119 3446.63 281.113 3446.63 282.108V323.191L3453.14 541.855L3446.63 725.878L3451.18 785.479C3451.68 791.957 3460.55 793.395 3463.06 787.404V787.404C3464.03 785.106 3466.28 783.611 3468.77 783.611H3471.67C3476.16 783.611 3480.16 786.459 3481.64 790.705L3491.2 818.251L3508.93 892.164C3509.46 894.351 3509.61 896.612 3509.38 898.851L3503.97 952.162C3503.8 953.811 3503.84 955.475 3504.08 957.114L3513 1017.31C3513.15 1018.35 3513.22 1019.4 3513.21 1020.46L3511.73 1155.27V1251.97L3513.18 1419.16C3513.21 1423.08 3514.4 1426.9 3516.59 1430.16L3528.55 1447.91C3529.35 1449.1 3530.02 1450.38 3530.55 1451.71L3539.05 1473.14C3539.53 1474.35 3539.89 1475.61 3540.13 1476.89L3545.95 1508.53C3546.17 1509.72 3546.28 1510.94 3546.28 1512.15V1527.68C3546.28 1543.68 3564.13 1553.2 3577.42 1544.29L3596.86 1531.25L3606.2 1523.01C3610.16 1519.51 3612.58 1514.58 3612.91 1509.3L3617.39 1439.6L3622.4 1270.73V1115.59C3622.4 1114.14 3622.24 1112.7 3621.93 1111.29L3613.17 1071.53C3612.65 1069.16 3612.57 1066.72 3612.92 1064.32L3617.3 1034.47C3617.69 1031.8 3618.62 1029.23 3620.03 1026.93L3629.97 1010.69C3631.9 1007.55 3632.92 1003.93 3632.92 1000.25V980.2C3632.92 978.091 3633.25 975.996 3633.91 973.991L3635.95 967.734C3636.59 965.766 3637.64 963.954 3639.03 962.417L3641.04 960.187C3642.56 958.497 3644.73 957.532 3647.01 957.532V957.532C3651.79 957.532 3655.51 953.389 3655 948.638L3654.21 941.191C3654.04 939.587 3653.6 938.022 3652.93 936.558L3647.79 925.444C3646.57 922.812 3645.94 919.947 3645.94 917.047V799.843C3645.94 796.761 3646.65 793.722 3648.02 790.961L3653.35 780.209C3655.05 776.776 3655.73 772.927 3655.31 769.12L3648.27 705.765C3648.05 703.79 3648.13 701.792 3648.5 699.839L3652 681.329C3652.3 679.762 3652.78 678.237 3653.44 676.784L3659.81 662.752C3660.57 661.064 3661.1 659.277 3661.37 657.444L3667.75 614.793C3667.9 613.799 3668.12 612.817 3668.42 611.856L3687.54 549.863C3687.85 548.856 3688.24 547.875 3688.7 546.929L3714.35 494.794C3715.47 492.511 3717.02 490.464 3718.91 488.761L3732.98 476.088C3737.47 472.041 3743.56 470.244 3749.53 471.2L3757.84 472.531C3763.31 473.408 3768.69 470.484 3770.93 465.413V465.413C3772.88 460.993 3777.25 458.142 3782.09 458.142H3799.53C3800.63 458.142 3801.72 458.233 3802.81 458.413L3814.14 460.297C3822.07 461.615 3828.44 467.55 3830.31 475.364L3836.74 502.163L3842.74 541.855L3853.76 588.041L3863.07 615.537C3863.54 616.927 3863.86 618.366 3864.01 619.826L3866.34 641.649C3866.63 644.37 3866.36 647.122 3865.55 649.734L3863.98 654.76C3862.86 658.321 3862.77 662.121 3863.7 665.732L3872.65 700.321C3873.08 701.957 3873.29 703.641 3873.29 705.331V725.878L3878.09 893.211C3878.16 895.663 3881.27 896.672 3882.77 894.73V894.73C3883.12 894.273 3883.31 893.713 3883.31 893.137V879.637C3883.31 877.248 3883.96 874.904 3885.2 872.862L3890.16 864.7C3892.03 861.626 3896.28 861.112 3898.82 863.651V863.651C3899.8 864.622 3900.37 865.919 3900.45 867.292L3901.58 889.089C3901.75 892.331 3902.7 895.484 3904.36 898.274L3905.04 899.403C3906.88 902.496 3907.85 906.029 3907.85 909.627V938.769L3905.75 954.491C3905.48 956.506 3905.52 958.551 3905.87 960.555L3911.56 993.362C3911.75 994.491 3911.85 995.634 3911.85 996.78V1030.42L3915.36 1056.4V1082.62C3915.36 1083.9 3915.24 1085.18 3914.99 1086.43L3912.22 1100.7C3911.98 1101.95 3911.85 1103.23 3911.85 1104.51V1149.14C3911.85 1153.11 3913.15 1156.98 3915.55 1160.16V1160.16C3917.08 1162.17 3918.17 1164.47 3918.75 1166.93L3922.32 1181.84C3922.69 1183.36 3922.87 1184.93 3922.87 1186.49V1238.26V1289.94C3922.87 1291.09 3922.97 1292.23 3923.16 1293.36L3928.88 1326.3L3931.38 1368.88V1388.36C3931.38 1389.8 3931.54 1391.24 3931.85 1392.64L3932.21 1394.31C3933.58 1400.55 3937.84 1405.76 3943.69 1408.34L3944.44 1408.67C3949.53 1410.91 3953.45 1415.16 3955.27 1420.41L3957.27 1426.16C3960.06 1434.21 3967.64 1439.6 3976.16 1439.6H3980.17C3985.19 1439.6 3990.02 1441.49 3993.71 1444.89L3999.55 1450.26C4003.66 1454.05 4006 1459.38 4006 1464.97V3195.61C4006 3206.66 3997.05 3215.61 3986 3215.61H19.9999C8.9542 3215.61 0 3206.66 0 3195.61V1719.16Z" fill="#484E55"/>
</svg>
