<svg width="4006" height="2778" viewBox="0 0 4006 2778" fill="none" xmlns="http://www.w3.org/2000/svg">
<path d="M2081.28 14.1971C2084.38 15.3805 2087.13 17.3143 2089.29 19.8248L2101.82 34.3619C2103.28 36.0607 2104.45 37.9934 2105.27 40.0793L2116.55 68.6813L2131.85 113.472C2132.33 114.879 2132.65 116.336 2132.81 117.814L2136.58 153.116V197.498V240.3C2136.58 241.352 2136.66 242.402 2136.83 243.441L2142.09 276.52L2146.58 382.164C2146.59 382.457 2146.63 382.748 2146.69 383.035V383.035C2147.79 388.213 2155.01 388.66 2156.75 383.657L2157.11 382.604L2159.72 376.035C2160.63 373.742 2162.26 371.808 2164.37 370.529V370.529C2168.18 368.216 2172.99 368.356 2176.67 370.886L2177.96 371.775C2180.66 373.64 2182.61 376.414 2183.45 379.592L2197.27 432.106C2198.19 435.603 2200.04 438.786 2202.63 441.315L2208.38 446.937C2211.2 449.692 2214.76 451.554 2218.63 452.288L2225.48 453.586C2229.55 454.357 2233.27 456.368 2236.14 459.344L2246.25 469.816C2247.24 470.833 2247.93 472.091 2248.27 473.462V473.462C2250.21 481.213 2261.03 481.725 2263.68 474.19L2270.96 453.52C2271.51 451.959 2271.79 450.317 2271.79 448.663V400.633C2271.79 399.202 2271.94 397.776 2272.25 396.378L2279.43 363.398C2279.68 362.252 2279.83 361.087 2279.87 359.915L2281.71 312.137C2281.77 310.529 2282.03 308.935 2282.47 307.388L2287.21 290.892C2287.61 289.494 2287.86 288.056 2287.95 286.603L2291.56 228.075C2291.73 225.282 2292.49 222.556 2293.78 220.073L2298.58 210.859C2300.06 208.008 2300.84 204.84 2300.84 201.626V170.165C2300.84 167.022 2301.58 163.923 2303 161.12L2308.64 149.995C2309.77 147.765 2310.47 145.343 2310.71 142.855L2311.69 132.614C2312.1 128.299 2314.68 124.489 2318.53 122.498L2319.43 122.033C2321.18 121.127 2322.61 119.702 2323.52 117.954V117.954C2325.73 113.707 2330.74 111.749 2335.24 113.371L2335.89 113.605C2339.31 114.836 2341.83 117.769 2342.54 121.332L2344.87 133.1C2345.84 137.988 2349.01 142.154 2353.47 144.387V144.387C2356.37 145.842 2358.77 148.14 2360.34 150.98L2361.42 152.917C2363.07 155.887 2363.93 159.228 2363.93 162.625V197.513C2363.93 199.654 2364.28 201.781 2364.95 203.813L2368.69 215.065C2369.19 216.579 2369.51 218.147 2369.64 219.737L2372.45 254.148V268.723C2372.45 271.017 2372.84 273.294 2373.61 275.455L2379.96 293.197C2380.62 295.058 2381.01 297.009 2381.1 298.984L2382.37 325.68C2382.43 327.061 2382.64 328.433 2382.99 329.771L2389.33 354.147C2389.76 355.792 2389.98 357.484 2389.98 359.184V399.683C2389.98 400.804 2390.07 401.923 2390.26 403.028L2395.2 432.182C2395.39 433.287 2395.48 434.406 2395.48 435.526V482.194V507.157C2395.48 507.353 2395.51 507.547 2395.56 507.735V507.735C2396.2 510.016 2399.51 509.764 2399.79 507.414L2400.99 497.348L2404.17 483.601C2404.39 482.664 2404.54 481.712 2404.62 480.754L2405.68 468.011C2405.89 465.483 2406.76 463.055 2408.21 460.97L2411.31 456.503C2414.61 451.747 2421.33 450.951 2425.65 454.805V454.805C2427.2 456.188 2428.26 458.035 2428.67 460.071L2435.14 491.761C2435.41 493.077 2435.55 494.417 2435.55 495.76V515.609C2435.55 517.38 2435.78 519.142 2436.25 520.851L2440.05 534.875L2443.68 548.606C2443.93 549.554 2444.11 550.519 2444.22 551.493L2446.23 569.42C2446.45 571.396 2446.97 573.329 2447.76 575.153L2450.49 581.443C2451.21 583.105 2452.15 584.662 2453.29 586.07L2455.22 588.458C2457.42 591.177 2458.87 594.426 2459.43 597.88L2460.08 601.964C2461.03 607.915 2464.62 613.119 2469.84 616.129L2470.97 616.777C2473.04 617.974 2474.89 619.535 2476.41 621.386L2483.62 630.134L2492.91 644.131C2494.06 645.855 2495.46 647.391 2497.08 648.684L2500.79 651.657C2502.68 653.172 2504.28 655.02 2505.52 657.108L2510.14 664.941C2511.48 667.211 2512.34 669.731 2512.67 672.346V672.346C2513.59 679.642 2518.57 685.784 2525.51 688.194L2537.01 692.183C2539.78 693.143 2542.3 694.699 2544.4 696.742L2559.4 711.328C2560.62 712.521 2561.69 713.867 2562.57 715.332L2569.81 727.321C2570.77 728.915 2571.5 730.635 2571.99 732.432L2582.33 770.665C2582.63 771.754 2583.01 772.816 2583.49 773.84L2601.81 813.436L2614.73 839.777C2615.79 841.925 2617.22 843.865 2618.96 845.508L2622.27 848.63C2627.56 853.631 2635.16 855.357 2642.1 853.135L2651.18 850.227C2652.65 849.757 2654.05 849.119 2655.37 848.326L2701.46 820.653L2761.5 775.213C2767.29 770.83 2775.15 770.37 2781.42 774.046L2782.1 774.447C2783.74 775.412 2785.17 776.701 2786.31 778.236L2787.47 779.808C2790.75 784.263 2796.71 785.803 2801.74 783.496V783.496C2803.31 782.777 2804.7 781.721 2805.81 780.403L2810.39 774.961C2811.88 773.201 2813.05 771.199 2813.85 769.042L2818.47 756.616C2819.48 753.898 2822.07 752.095 2824.97 752.095V752.095C2827.55 752.095 2829.91 753.524 2831.11 755.805L2841.1 774.802C2841.48 775.537 2841.76 776.323 2841.93 777.136L2842.92 781.994C2844.22 788.328 2852.69 789.633 2855.83 783.981V783.981C2856.4 782.947 2856.7 781.784 2856.7 780.602V765.109C2856.7 763.179 2856.98 761.258 2857.53 759.408L2858.71 755.447C2859.37 753.229 2860.41 751.143 2861.78 749.28L2864.84 745.137C2867.05 742.138 2868.38 738.58 2868.68 734.865L2869.14 729.054C2869.52 724.359 2871.54 719.948 2874.85 716.597L2882.78 708.564C2886.17 705.135 2891.13 703.775 2895.79 704.996L2897.36 705.409C2898.61 705.736 2899.75 706.386 2900.67 707.293L2904.5 711.063C2906.51 713.048 2909.9 712.299 2910.89 709.65V709.65C2911.66 707.598 2913.97 706.579 2916 707.393L2919.86 708.94C2920.82 709.321 2921.69 709.882 2922.42 710.592L2923.19 711.328C2925.83 713.859 2927.31 717.356 2927.31 721.009V742.949C2927.31 744.709 2927.55 746.461 2928.01 748.16L2930.04 755.709C2930.56 757.618 2931.36 759.437 2932.43 761.103L2935.11 765.29C2936.21 767.004 2937.95 768.203 2939.95 768.614V768.614C2942.39 769.115 2944.91 768.386 2946.71 766.662L2948.55 764.892C2950.37 763.138 2951.62 760.868 2952.12 758.386L2956.47 736.725C2956.73 735.428 2956.86 734.109 2956.86 732.786V686.169C2956.86 684.898 2956.98 683.631 2957.22 682.383L2964.05 646.987C2964.26 645.857 2964.58 644.748 2964.99 643.673L2977.86 609.771C2978.55 607.961 2978.97 606.06 2979.11 604.129L2980.9 579.618L2985.73 551.198C2986.49 546.705 2988.77 542.608 2992.18 539.585L2996.53 535.72C2998.77 533.738 3000.53 531.281 3001.69 528.529L3015.45 495.905L3036.09 460.625C3036.69 459.611 3037.19 458.546 3037.6 457.443L3044.62 438.398C3045.2 436.811 3045.99 435.304 3046.95 433.914L3057.06 419.341C3058.36 417.475 3059.96 415.844 3061.8 414.517L3065.37 411.945C3066.48 411.15 3067.66 410.469 3068.9 409.914L3078.36 405.684C3080.47 404.738 3082.74 404.167 3085.05 403.996L3117.31 401.612C3119.5 401.45 3121.7 401.651 3123.83 402.205L3175.67 415.729C3177.68 416.255 3179.6 417.091 3181.36 418.209L3235.91 452.928C3237.82 454.147 3239.52 455.684 3240.92 457.473L3333.53 575.807C3335.13 577.847 3337.11 579.557 3339.36 580.843L3423.34 628.846C3424.84 629.701 3426.44 630.359 3428.1 630.804L3481.96 645.201C3485.7 646.2 3489.07 648.264 3491.66 651.141L3508.6 669.965C3510.66 672.247 3513.21 674.025 3516.06 675.162L3529.67 680.586C3533.32 682.04 3536.46 684.536 3538.7 687.762L3540.68 690.62C3542.39 693.083 3543.52 695.899 3544 698.86L3546.64 715.388C3547.38 719.989 3549.7 724.188 3553.2 727.261L3556.34 730.014C3558.29 731.72 3560.61 732.938 3563.12 733.567V733.567C3567.98 734.785 3572.01 738.172 3574.04 742.751L3578.37 752.505C3578.68 753.193 3578.93 753.905 3579.11 754.633L3582.69 768.509C3583.84 772.951 3589.44 774.365 3592.56 770.998V770.998C3594.23 769.186 3596.87 768.635 3599.14 769.625L3691.01 809.828L3726.99 828.932C3728.37 829.665 3729.66 830.556 3730.83 831.588L3745.39 844.407C3746.52 845.407 3747.77 846.274 3749.1 846.993L3761.19 853.53C3762.46 854.213 3763.87 854.571 3765.31 854.571V854.571C3768.03 854.571 3770.59 853.292 3772.23 851.117L3774.29 848.377C3775.51 846.749 3776.4 844.896 3776.91 842.924L3782.12 822.71C3782.47 821.342 3782.97 820.016 3783.6 818.753L3797.41 791.148C3797.92 790.132 3798.51 789.161 3799.19 788.246L3824.72 753.538L3874.7 692.49C3876.41 690.392 3877.69 687.967 3878.44 685.362L3923.3 529.801C3924.64 525.162 3927.61 521.163 3931.66 518.544L3949.47 507.044C3952.7 504.955 3956.47 503.843 3960.32 503.843H3988.47V503.843C3998.15 503.843 4006 511.691 4006 521.371V2757.8C4006 2768.85 3997.05 2777.8 3986 2777.8H20.5C9.45433 2777.8 0.5 2768.85 0.5 2757.8V270.269C0.5 260.86 7.05839 252.723 16.2529 250.725L40.9866 245.35C46.4158 244.17 52.0912 245.302 56.6526 248.474L120.291 292.73C123.368 294.87 125.782 297.832 127.258 301.278L186.608 439.908C189.061 445.638 194.045 449.897 200.088 451.426L265.479 467.97C270.615 469.27 275.026 472.555 277.743 477.103L310.729 532.326C315.084 539.619 323.571 543.364 331.894 541.667L363.766 535.169C367.51 534.406 370.957 532.586 373.7 529.924L394.763 509.48C399.804 504.587 407.644 504.059 413.296 508.23V508.23C419.539 512.838 428.36 511.596 433.158 505.499V505.499C440.634 496 455.851 499.053 458.872 510.756L467.443 543.966C468.457 547.895 470.643 551.424 473.709 554.082L482.091 561.346C483.359 562.444 484.483 563.698 485.437 565.077L491.329 573.588C495.711 579.919 503.338 583.172 510.941 581.953L566.167 573.096C569.022 572.638 571.942 572.805 574.726 573.584L634.823 590.41C638.529 591.448 642.455 591.394 646.132 590.256L657.879 586.618C663.36 584.92 669.307 585.659 674.206 588.645L720.062 616.6C722.653 618.179 725.57 619.148 728.591 619.434L787.5 625L852.31 636.708C860.037 638.103 867.865 634.849 872.325 628.388L901.249 586.485C902.409 584.804 903.306 582.954 903.906 581.001L927.132 505.45C928.032 502.523 929.592 499.841 931.693 497.611L974.129 452.578C976.343 450.228 977.956 447.376 978.829 444.267L993.5 392L1011.27 346.023C1013.72 339.695 1021.89 338.017 1026.63 342.869V342.869C1031.67 348.019 1040.39 345.76 1042.29 338.813L1047.36 320.27C1050.76 307.859 1064.82 301.836 1076.14 307.942L1100.99 321.335C1107.46 324.824 1111.5 331.585 1111.5 338.94V430.793C1111.5 440.917 1125.59 443.398 1129.05 433.882V433.882C1131.55 426.993 1140.78 425.783 1144.97 431.794L1157.4 449.614C1159.74 452.971 1161 456.965 1161 461.057V565.803C1161 570.088 1162.38 574.26 1164.93 577.704L1189.5 610.901C1193.28 615.995 1199.24 619 1205.58 619H1239.2C1247 619 1254.09 623.536 1257.36 630.619L1274.84 668.496C1277.46 674.169 1282.58 678.292 1288.68 679.642L1326.4 687.986C1332.17 689.263 1338.21 687.921 1342.9 684.321L1355.63 674.543C1360.59 670.736 1367.04 669.466 1373.07 671.111L1382.87 673.783C1391.04 676.011 1399.73 672.853 1404.56 665.899L1426.36 634.519C1428.42 631.561 1431.23 629.213 1434.51 627.723L1457.53 617.259C1464.01 614.313 1468.44 608.141 1469.15 601.056L1474.74 545.628C1474.91 543.883 1475.32 542.17 1475.94 540.531L1485.98 514.089C1487.61 509.795 1490.67 506.194 1494.64 503.889L1509.42 495.315C1513.66 492.858 1516.85 488.931 1518.38 484.279L1530.05 448.904C1531 446.006 1532.61 443.366 1534.74 441.185L1570.62 404.498C1574.38 400.65 1579.53 398.481 1584.92 398.481H1615.06C1618.62 398.481 1622.12 397.528 1625.19 395.721L1668.6 370.197C1672.42 367.948 1675.39 364.491 1677.04 360.37L1702.87 295.64C1707.05 285.171 1719.05 280.221 1729.39 284.7L1744.37 291.186C1751.1 294.101 1758.93 292.662 1764.19 287.543V287.543C1770.67 281.228 1780.82 280.673 1787.95 286.243L1813.58 306.262C1816.47 308.521 1818.69 311.533 1819.98 314.967L1828.12 336.561C1833.36 350.445 1851.36 353.993 1861.47 343.135L1873.06 330.692C1875.32 328.269 1878.14 326.444 1881.28 325.381L1916.38 313.484C1923.25 311.158 1928.31 305.299 1929.63 298.171L1953 171.5L1962.77 138.932C1963.25 137.319 1963.5 135.645 1963.5 133.961V106.239C1963.5 97.9535 1974.15 94.5703 1978.93 101.337V101.337C1983.19 107.356 1992.56 105.473 1994.16 98.2774L1994.84 95.219C1994.95 94.7403 1995.02 94.2544 1995.05 93.7653L1998.08 50.4564C1998.36 46.5702 1999.76 42.8481 2002.11 39.7471L2025.93 8.42589C2031.31 1.35703 2040.7 -1.32083 2048.99 1.85071L2081.28 14.1971Z" fill="#959798"/>
</svg>
