<svg width="4002" height="3654" viewBox="0 0 4002 3654" fill="none" xmlns="http://www.w3.org/2000/svg">
<path d="M0 256.294C0 245.41 8.70323 236.524 19.5847 236.298L202.842 232.493C206.541 232.416 210.19 233.367 213.381 235.239L286.226 277.992C289.033 279.639 291.395 281.946 293.108 284.713L345.68 369.637C347.841 373.128 348.875 377.199 348.642 381.298L338.176 565.635C336.987 586.576 364.729 594.992 375.376 576.921L400.023 535.086C405.359 526.029 416.796 522.648 426.199 527.35L475.621 552.061C481.769 555.135 485.908 561.151 486.581 567.992L511.316 819.542C511.759 824.047 513.717 828.268 516.87 831.516L632.714 950.844C639.735 958.076 651.039 958.954 659.092 952.892L731.713 898.227C734.521 896.113 736.723 893.296 738.096 890.061L795.945 753.735C798.76 747.101 804.926 742.494 812.086 741.677L1019.25 718.013C1027.27 717.097 1035.06 721.094 1038.99 728.147L1044.88 738.713C1053.27 753.768 1075.51 751.867 1081.22 735.605L1111.43 649.619C1111.81 648.542 1112.28 647.499 1112.84 646.501L1177.19 531.194C1181.28 523.869 1189.51 519.874 1197.79 521.188L1412.55 555.263C1419.36 556.344 1426.25 553.84 1430.78 548.638L1524.22 441.231C1527.61 437.337 1532.37 434.903 1537.51 434.439L1665.09 422.931C1674.62 422.071 1682.21 414.579 1683.19 405.058L1700.34 238.294C1700.45 237.236 1700.64 236.189 1700.91 235.163L1746.03 66.8228C1748.37 58.0795 1756.29 52 1765.35 52H1883.89C1890.25 52 1896.23 55.0231 1899.99 60.1434L1992.4 185.669C1995.06 189.278 1998.85 191.891 2003.17 193.087L2091.24 217.477C2094.06 218.258 2096.67 219.65 2098.9 221.555L2108.18 229.496C2110.4 231.393 2113 232.781 2115.81 233.565L2121.51 235.155C2125.14 236.168 2128.99 236.134 2132.6 235.056L2139.8 232.911C2140.99 232.555 2142.15 232.087 2143.26 231.514L2164.86 220.356C2167.02 219.237 2169.38 218.524 2171.8 218.251L2200.18 215.055L2223.3 209.177C2224.91 208.768 2226.57 208.56 2228.23 208.56H2252.88C2256.09 208.56 2259.27 207.783 2262.12 206.296L2278.77 197.619C2280.45 196.739 2282.26 196.104 2284.13 195.735L2302 192.199C2305.19 191.57 2308.17 190.174 2310.7 188.133L2325.65 176.047C2326.8 175.113 2328.06 174.311 2329.39 173.655L2343.74 166.594C2346.49 165.242 2349.51 164.539 2352.57 164.539H2403.48C2407.1 164.539 2410.65 163.558 2413.75 161.699L2436.82 147.894C2439.92 146.035 2443.47 145.054 2447.09 145.054H2471.32C2472.84 145.054 2474.36 145.227 2475.84 145.571L2513.25 154.246C2515.84 154.847 2518.53 154.925 2521.16 154.473L2549.05 149.674C2550.17 149.481 2551.3 149.384 2552.44 149.384H2571.57C2573.36 149.384 2575.14 149.624 2576.87 150.097L2593.06 154.542C2594.55 154.951 2595.99 155.531 2597.34 156.27L2628.44 173.226C2631.02 174.634 2633.26 176.594 2635 178.967L2649.83 199.212C2650.86 200.627 2651.71 202.172 2652.34 203.807L2662.87 230.996C2663.23 231.914 2663.65 232.805 2664.14 233.661L2687.48 274.691C2688.12 275.825 2688.66 277.02 2689.07 278.258L2697.64 303.992C2699.44 309.393 2703.45 313.771 2708.68 316.03L2710.6 316.861C2713.8 318.246 2717.31 318.768 2720.78 318.376L2738.97 316.321C2740.34 316.166 2741.72 316.153 2743.1 316.283L2769.58 318.785C2770.91 318.911 2772.22 319.17 2773.5 319.558L2800.12 327.634L2816.31 332.546C2818.2 333.117 2820.15 333.408 2822.12 333.408H2836.74C2839.99 333.408 2843.19 334.2 2846.07 335.716L2859.89 343.004C2861.44 343.819 2862.87 344.835 2864.15 346.024L2876.24 357.223L2903.09 387.237C2904.54 388.866 2905.72 390.723 2906.58 392.734L2917.17 417.61C2918.25 420.143 2919.84 422.426 2921.84 424.316L2931.06 433.016C2932.56 434.438 2933.84 436.085 2934.84 437.899L2946.2 458.488C2947.94 461.642 2950.5 464.268 2953.6 466.088L2962.38 471.226C2964.04 472.196 2965.83 472.922 2967.69 473.383L2976.21 475.487C2980.24 476.483 2983.86 478.71 2986.57 481.858L2996.57 493.482C2997.48 494.531 2998.27 495.671 2998.93 496.884L3007.64 512.701C3008.84 514.873 3010.43 516.805 3012.33 518.396L3022.77 527.137C3024.23 528.358 3025.86 529.365 3027.6 530.127L3038.1 534.709C3040.34 535.689 3042.76 536.195 3045.21 536.195V536.195C3051.32 536.195 3057 533.063 3060.25 527.9L3064.08 521.828C3064.72 520.824 3065.44 519.877 3066.24 519.001L3077.61 506.568C3078.9 505.158 3079.98 503.57 3080.82 501.853L3095.08 472.688L3108.06 452.699C3109.09 451.119 3110.33 449.692 3111.75 448.46L3133.48 429.675C3134.26 429.004 3135.08 428.394 3135.95 427.85L3169.79 406.679C3171.72 405.47 3173.84 404.6 3176.07 404.107L3186.21 401.859C3190.13 400.988 3194.23 401.322 3197.97 402.817L3225.59 413.876C3227.38 414.592 3229.06 415.563 3230.57 416.759L3248.89 431.25C3252.09 433.784 3256.05 435.162 3260.14 435.162V435.162C3264.77 435.162 3269.23 436.936 3272.59 440.12L3280.1 447.218C3282.25 449.255 3284.86 450.755 3287.7 451.596V451.596C3296.49 454.193 3305.87 450.09 3309.93 441.875L3342.9 375.122C3344.27 372.367 3344.97 369.336 3344.97 366.264V347.898C3344.97 346.899 3345.05 345.902 3345.2 344.914L3347.48 329.799L3358.52 267.548C3358.83 265.758 3359.39 264.019 3360.18 262.38L3372.52 236.705L3382.39 206.312C3383.15 203.982 3384.32 201.811 3385.87 199.906L3405.34 175.854C3407.14 173.629 3408.44 171.042 3409.16 168.27L3415.69 142.955C3415.95 141.95 3416.14 140.927 3416.24 139.894L3419.56 105.773C3419.91 102.198 3421.21 98.7823 3423.34 95.8855L3446.44 64.3699C3447.56 62.8397 3448.9 61.4769 3450.4 60.3226L3470.35 45.0332C3471.23 44.3598 3472.05 43.6146 3472.81 42.8054L3489.27 25.1579C3490.55 23.7882 3492.02 22.6049 3493.62 21.6427L3520.1 5.79704C3522.51 4.35408 3525.19 3.43518 3527.98 3.1002L3548.2 0.6721C3551.86 0.232595 3555.57 0.81307 3558.92 2.34943L3573.32 8.95174C3574.99 9.71579 3576.75 10.2471 3578.56 10.5308L3595.86 13.2396C3597.85 13.5524 3599.79 14.1663 3601.61 15.0602L3613.14 20.7458C3616.26 22.2841 3618.92 24.6097 3620.87 27.4929L3634.3 47.3884C3635.38 48.9842 3636.22 50.7273 3636.8 52.5636L3642.76 71.4594C3643.21 72.8883 3643.82 74.262 3644.58 75.5546L3660.83 103.283C3661.91 105.138 3662.7 107.157 3663.14 109.261L3668.83 136.199C3669.26 138.241 3670.01 140.203 3671.05 142.013L3688.51 172.477L3698.79 194.965C3700.87 199.531 3704.6 203.145 3709.23 205.09L3723.97 211.287C3725.37 211.873 3726.69 212.615 3727.91 213.498L3759.89 236.54C3763.3 238.993 3767.39 240.313 3771.58 240.313H3784.21C3788.41 240.313 3792.5 241.633 3795.91 244.087L3801.44 248.077C3803.59 249.621 3805.4 251.575 3806.79 253.826L3821.63 277.952C3823.33 280.722 3825.69 283.035 3828.48 284.69L3860.31 303.503C3862.28 304.668 3864.03 306.162 3865.5 307.921L3889.28 336.479C3889.97 337.317 3890.74 338.096 3891.56 338.809L3911.31 355.886C3913.97 358.18 3917.18 359.736 3920.62 360.398L3933.71 362.913C3936.47 363.443 3939.09 364.55 3941.39 366.159L3952.15 373.675C3953.66 374.729 3955.02 375.987 3956.18 377.413L3980.97 407.739L3996.11 422.803C3999.88 426.557 4002 431.659 4002 436.981V3633.77C4002 3644.82 3993.05 3653.77 3982 3653.77H20C8.95427 3653.77 0 3644.82 0 3633.77V256.294Z" fill="#DAD7D3"/>
</svg>
