<svg width="3996" height="3283" viewBox="0 0 3996 3283" fill="none" xmlns="http://www.w3.org/2000/svg">
<path d="M2074.27 28.6168C2075.42 28.4125 2076.59 28.3098 2077.76 28.3098H2104.39C2106.81 28.3098 2109.21 27.8715 2111.47 27.0161L2121.6 23.1839C2125.8 21.5958 2130.41 21.4661 2134.69 22.8155L2149.18 27.3845C2151.13 27.9978 2153.16 28.3098 2155.2 28.3098H2172.4C2175.53 28.3098 2178.61 29.0437 2181.41 30.4526L2183.85 31.6828C2191.52 35.5513 2200.86 33.227 2205.83 26.2162V26.2162C2208.32 22.6879 2212.05 20.2191 2216.27 19.293L2239.26 14.2526C2242.54 13.5324 2245.95 13.6517 2249.18 14.5994L2270.05 20.7323L2281.68 24.5984C2288.57 26.8893 2296.16 25.2673 2301.51 20.3606L2303.63 18.4146C2307.32 15.0316 2312.14 13.1549 2317.15 13.1549H2330.81C2334.78 13.1549 2338.67 11.9698 2341.97 9.75108L2350.78 3.82563C2356.21 0.175534 2363.08 -0.589879 2369.18 1.77601L2395.9 12.1443C2397.63 12.8148 2399.25 13.7222 2400.73 14.8405L2413.18 24.2594C2416.66 26.8876 2420.89 28.3098 2425.25 28.3098H2435.3C2441.18 28.3098 2446.77 30.8996 2450.57 35.3901L2468.06 56.0597C2469.09 57.2808 2469.98 58.6214 2470.69 60.0529L2478.64 75.9989C2480.27 79.2647 2482.76 82.0226 2485.85 83.9738L2495.84 90.2982C2499.62 92.6846 2502.48 96.2643 2503.98 100.467L2509.61 116.206C2509.99 117.264 2510.28 118.352 2510.47 119.459L2516.82 155.385C2517.06 156.782 2517.46 158.15 2518 159.464L2530.73 190.658C2531.71 193.058 2532.21 195.625 2532.21 198.217V242.084C2532.21 243.892 2532.46 245.691 2532.94 247.433L2535.6 257.013C2536.01 258.494 2536.25 260.017 2536.31 261.553L2539.5 340.322C2539.65 343.934 2540.77 347.438 2542.75 350.463L2555.22 369.527C2555.91 370.573 2556.49 371.681 2556.97 372.836L2568.76 401.347C2569.76 403.77 2570.27 406.366 2570.27 408.988V414.154C2570.27 418.027 2571.71 421.762 2574.31 424.634V424.634C2583.75 435.057 2601.07 428.682 2601.5 414.629L2602.71 374.949C2602.78 372.406 2603.35 369.901 2604.36 367.568L2614.68 343.889C2615.78 341.368 2616.34 338.649 2616.34 335.9V295.502C2616.34 292.534 2617 289.604 2618.28 286.923L2620.92 281.354C2622.19 278.674 2622.85 275.744 2622.85 272.776V246.668C2622.85 245.431 2622.97 244.197 2623.2 242.981L2627.02 222.624C2627.57 219.651 2628.8 216.844 2630.6 214.412L2632.89 211.316C2634.85 208.669 2637.44 206.559 2640.43 205.18V205.18C2645.5 202.844 2649.33 198.459 2650.96 193.125L2652.98 186.542C2654.82 180.518 2659.39 175.715 2665.32 173.58L2672.65 170.939C2674.83 170.156 2677.12 169.755 2679.43 169.755H2682.27C2689.31 169.755 2695.61 174.112 2698.11 180.698V180.698C2699.32 183.911 2701.49 186.679 2704.31 188.633L2706.04 189.824C2710.19 192.696 2713.1 197.032 2714.19 201.961L2719.04 223.915C2719.35 225.331 2719.51 226.777 2719.51 228.227V243.071C2719.51 247.027 2720.68 250.894 2722.88 254.183L2729.15 263.578C2731.35 266.868 2732.53 270.735 2732.53 274.691V323.922C2732.53 326.483 2733.02 329.02 2733.98 331.396L2740.09 346.574C2741.05 348.95 2741.54 351.487 2741.54 354.049V403.143C2741.54 404.325 2742.09 405.441 2743.02 406.166V406.166C2745.3 407.936 2748.64 406.641 2749.14 403.797L2753.06 381.202L2756.16 357.548C2756.42 355.599 2757.45 353.835 2759.02 352.654V352.654C2763.27 349.461 2769.39 351.719 2770.55 356.905L2777.04 385.926C2777.41 387.581 2777.99 389.183 2778.76 390.692L2783.91 400.72C2785.35 403.544 2786.11 406.673 2786.11 409.847V434.409C2786.11 438.304 2787.25 442.114 2789.38 445.372L2791.65 448.837C2793.6 451.805 2794.72 455.236 2794.9 458.779L2798.05 520.414C2798.1 521.421 2798.23 522.422 2798.43 523.41L2804.1 551.032C2804.46 552.789 2804.58 554.587 2804.46 556.376L2801.17 605.753C2801.15 606.157 2801.15 606.564 2801.2 606.967L2801.46 609.467C2802.2 616.463 2811.95 617.517 2814.17 610.84V610.84C2815.06 608.166 2817.56 606.361 2820.38 606.361H2824.92C2831.15 606.361 2836.48 610.832 2837.56 616.965L2855.08 716.268C2856.15 722.352 2864.23 723.793 2867.34 718.456V718.456C2868.23 716.919 2869.71 715.807 2871.43 715.368L2874.79 714.514C2881.28 712.865 2888.07 715.742 2891.39 721.548L2907.83 750.248C2910.38 754.703 2914.55 758.006 2919.47 759.474L2948.65 768.175C2953 769.472 2956.78 772.21 2959.37 775.939L2968.13 788.567C2968.97 789.775 2969.68 791.072 2970.23 792.434L2974.52 802.982C2976.68 808.28 2981 812.402 2986.39 814.306L2998.4 818.543C3001.07 819.485 3003.51 820.984 3005.55 822.94L3019.58 836.337C3022.45 839.077 3026.07 840.902 3029.98 841.58L3043.39 843.906C3048.3 844.759 3052.72 847.415 3055.77 851.355L3066.85 865.636C3068.95 868.345 3071.71 870.468 3074.87 871.802L3351.05 988.468C3361.05 992.69 3372.59 988.173 3377.06 978.287L3404.66 917.25C3405.27 915.909 3406.02 914.639 3406.91 913.463L3458.16 845.391C3461.36 841.132 3462.74 835.768 3461.97 830.492L3456.86 795.207C3456.4 792.038 3456.7 788.806 3457.75 785.781L3475 736.072C3475.46 734.757 3475.77 733.399 3475.95 732.019L3481.17 690.675C3481.52 687.9 3482.44 685.228 3483.89 682.834L3493.31 667.256C3494.57 665.166 3496.21 663.324 3498.13 661.823L3506.73 655.13C3511.19 651.648 3513.98 646.434 3514.38 640.784L3519.61 567.94C3519.71 566.615 3519.93 565.303 3520.29 564.023L3525.04 546.923C3525.52 545.181 3525.77 543.382 3525.77 541.574V526.644C3525.77 522.184 3527.26 517.852 3530 514.337L3535.86 506.836C3538.1 503.961 3539.52 500.527 3539.95 496.905L3540.94 488.609C3541.49 484.021 3543.61 479.764 3546.94 476.562L3560.11 463.915C3561.9 462.191 3563.36 460.148 3564.4 457.89L3566.83 452.637C3568.15 449.797 3570.11 447.304 3572.56 445.36L3578.85 440.379L3582.95 436.205C3585.77 433.335 3589.63 431.719 3593.65 431.719H3594.22C3595.97 431.719 3597.7 432.091 3599.3 432.81V432.81C3602.82 434.396 3605.4 437.536 3606.27 441.3L3607.89 448.317L3612.27 467.223C3613.27 471.581 3616.59 475.035 3620.9 476.219V476.219C3623.2 476.848 3625.26 478.135 3626.83 479.921L3630.14 483.696C3632.62 486.513 3634.24 489.976 3634.82 493.681L3637.08 508.095C3637.29 509.41 3638.42 510.38 3639.75 510.38V510.38C3641.03 510.38 3642.14 509.484 3642.4 508.233L3646.63 488.091C3646.85 487.075 3647.14 486.078 3647.51 485.107L3660.17 451.747C3661.04 449.479 3661.48 447.074 3661.48 444.648V424.981C3661.48 423.226 3661.71 421.479 3662.16 419.784L3670.99 386.976L3682.51 338.624L3700.15 293.147C3701.07 290.772 3702.43 288.594 3704.17 286.732L3719.47 270.334C3720.53 269.197 3721.72 268.188 3723.02 267.327L3751.19 248.592C3752.8 247.519 3754.56 246.685 3756.42 246.119L3781.43 238.473C3784.49 237.536 3787.8 238.852 3789.38 241.639V241.639C3792.08 246.39 3798.98 246.221 3801.44 241.343L3803.28 237.692C3803.56 237.145 3803.89 236.628 3804.27 236.149L3816.76 220.401C3818.71 217.944 3821.21 215.979 3824.06 214.666L3836.7 208.835C3841.83 206.468 3847.73 206.384 3852.93 208.604L3865.4 213.927C3869.55 215.699 3872.98 218.822 3875.13 222.789L3895.78 260.89C3896.49 262.193 3897.05 263.569 3897.45 264.995L3907.62 301.055C3909.06 306.165 3912.47 310.492 3917.1 313.084L3941.78 326.885C3942.87 327.493 3943.9 328.202 3944.85 329.002L3971.2 351.05C3973.35 352.849 3975.1 355.081 3976.34 357.6L3993.97 393.642C3995.3 396.378 3996 399.384 3996 402.43V3262.28C3996 3273.33 3987.05 3282.28 3976 3282.28H20.5001C9.45441 3282.28 0.5 3273.33 0.5 3262.28V559.402C0.5 555.662 1.54879 551.997 3.52727 548.823L16.8079 527.517C18.2539 525.197 20.1602 523.198 22.409 521.644L46.5456 504.961C50.6946 502.093 53.607 497.764 54.6993 492.84L84.5288 358.378C85.1683 355.495 86.4383 352.79 88.2475 350.456L154.323 265.223C162.289 254.946 177.79 254.885 185.838 265.098L234.684 327.081C238.718 332.201 246.436 332.326 250.634 327.34V327.34C256.52 320.352 267.915 323.93 268.75 333.028L280.86 465.068C281.558 472.676 286.528 479.221 293.669 481.936L335.529 497.85C340.025 499.559 343.755 502.831 346.034 507.067L406 618.5L449.685 700.568C453.155 707.088 462.385 707.399 466.287 701.128V701.128C470.797 693.88 481.818 695.698 483.761 704.011L507.908 807.326C508.626 810.399 510.06 813.257 512.094 815.669L706.085 1045.69C713.214 1054.14 725.851 1055.2 734.293 1048.06L745.98 1038.17C749.547 1035.15 751.945 1030.98 752.757 1026.38L767.375 943.541C767.788 941.199 768.616 938.95 769.819 936.899L805.477 876.097C806.487 874.375 807.233 872.512 807.691 870.569L821.5 812L836.106 732.329C837.292 725.861 841.581 720.39 847.577 717.694L894.845 696.442C899.741 694.24 903.547 690.163 905.406 685.126L932.362 612.094C935.682 603.099 948.852 604.654 949.985 614.175V614.175C950.311 616.91 951.855 619.353 954.187 620.82L987.552 641.814C992.298 644.8 995.572 649.641 996.577 655.157L1016.92 766.817C1017.3 768.925 1018.02 770.958 1019.05 772.838L1037.71 806.907C1039.53 810.234 1042.26 812.974 1045.58 814.808L1123.86 858.04C1125.61 859.008 1127.21 860.233 1128.59 861.676L1174.36 909.21C1186.12 921.43 1206.8 914.376 1208.65 897.513L1217.68 814.909C1217.89 812.98 1218.38 811.092 1219.14 809.304L1254.42 725.73C1255.46 723.268 1256 720.623 1256 717.951V489.602C1256 488.205 1256.15 486.811 1256.44 485.443L1269.06 426.057C1269.35 424.689 1269.5 423.295 1269.5 421.898V304.5C1269.5 301.537 1270.16 298.611 1271.43 295.933L1298.15 239.555C1302.23 230.962 1313.11 228.199 1320.79 233.809L1323.39 235.709C1328.26 239.269 1335.05 238.517 1339.02 233.976V233.976C1341.23 231.449 1344.43 230 1347.78 230H1393.04C1396.62 230 1400.12 230.957 1403.2 232.773L1429.06 248.023C1434.38 251.163 1437.96 256.587 1438.74 262.718L1441.84 287.015C1442.85 294.902 1448.55 301.479 1456.18 303.712V303.712C1461.15 305.166 1465.43 308.511 1468 313.006L1475.22 325.634C1478.24 330.92 1483.51 334.543 1489.52 335.475L1515.5 339.5L1549.48 343.971C1552.13 344.32 1554.69 345.198 1557 346.552L1582.73 361.654C1592.06 367.135 1604.07 364.188 1609.81 355.006L1615.19 346.395C1617.95 341.974 1622.33 338.807 1627.4 337.568L1654.16 331.019C1661.69 329.177 1669.61 331.852 1674.48 337.886L1684.46 350.252C1687.69 354.262 1692.35 356.868 1697.46 357.527L1729.11 361.611C1733.57 362.187 1738.1 361.24 1741.96 358.925L1773.49 340.006C1779.68 336.295 1787.38 336.202 1793.65 339.762L1819.1 354.207C1820.03 354.734 1820.9 355.358 1821.7 356.069V356.069C1829.84 363.331 1842.76 359.817 1846.1 349.432L1849.31 339.464C1851.29 333.329 1858.13 330.244 1864.03 332.827V332.827C1870.58 335.692 1878.07 331.575 1879.15 324.511L1880.22 317.6C1881.27 310.752 1886.78 305.457 1893.66 304.675V304.675C1899.91 303.965 1905.09 299.525 1906.74 293.463L1922.76 234.848C1923.86 230.86 1926.79 227.632 1930.65 226.166V226.166C1935.68 224.26 1939 219.447 1939 214.073V155.505C1939 152.539 1939.66 149.61 1940.93 146.93L1951.52 124.612C1952.5 122.553 1953.12 120.341 1953.35 118.073L1957.45 78.0121C1958.62 66.5568 1974.05 63.7686 1979.16 74.089V74.089C1983.29 82.4377 1995.12 82.6477 1999.54 74.4508L2014.41 46.9179C2017.31 41.5452 2022.5 37.7918 2028.52 36.7262L2074.27 28.6168Z" fill="#B2B1B0"/>
</svg>
