<svg width="4002" height="1534" viewBox="0 0 4002 1534" fill="none" xmlns="http://www.w3.org/2000/svg">
<path d="M0 467.62C0 460.705 3.57169 454.281 9.44497 450.632L131.152 375.012C134.321 373.043 137.977 372 141.707 372H317.229C323.395 372 329.216 374.844 333.005 379.707L413.969 483.61C415.96 486.165 417.3 489.166 417.875 492.353L443.803 636.134C444.263 638.687 445.216 641.126 446.608 643.315L537.327 785.991C545.258 798.465 563.513 798.322 571.248 785.725L622.387 702.441C623.782 700.17 624.708 697.643 625.112 695.009L657.245 485.606C657.415 484.502 657.676 483.414 658.028 482.353L695.15 370.231C699.477 357.161 715.409 352.27 726.325 360.661L755.517 383.1C767.615 392.4 785.252 385.27 787.489 370.176L796.261 310.985C796.746 307.713 798.035 304.612 800.013 301.96L859.779 221.819C861.889 218.99 864.709 216.77 867.955 215.383L954.584 178.377C961.576 175.39 969.657 176.626 975.436 181.567L1119.31 304.553C1120.43 305.515 1121.45 306.598 1122.33 307.783L1331 587L1447.36 741.176C1449.73 744.322 1452.98 746.696 1456.7 748L1635.64 810.77C1639.77 812.217 1644.25 812.273 1648.41 810.93L1745.75 779.5L1845.58 747.265C1848.17 746.43 1850.89 746.131 1853.6 746.385L2051.71 764.986C2058.44 765.619 2064.4 769.611 2067.54 775.598L2206.49 1040.13C2207.49 1042.03 2208.79 1043.76 2210.33 1045.24L2394.99 1222.93L2578.14 1381.85C2581.78 1385.01 2586.44 1386.75 2591.25 1386.75H2769.22C2776 1386.75 2782.32 1383.31 2786 1377.62L2829.67 1310.25L2875.02 1225.22C2875.83 1223.7 2876.84 1222.29 2878.01 1221.03L2974.06 1117.55C2977.49 1113.85 2979.4 1108.99 2979.4 1103.94V918.559C2979.4 916.061 2979.87 913.585 2980.78 911.259L3024.5 799.745C3027.51 792.084 3034.89 787.045 3043.12 787.045H3113.7C3124.32 787.045 3133.09 795.353 3133.67 805.962L3146.7 1046.53C3147.81 1066.87 3175.05 1072.74 3184.43 1054.66L3227.35 971.925C3228.63 969.456 3229.38 966.748 3229.56 963.974L3259.47 489.866C3259.71 486.003 3261.07 482.293 3263.38 479.188L3315.48 409.156C3318.05 405.706 3319.43 401.52 3319.43 397.219V140.903C3319.43 135.957 3321.27 131.186 3324.58 127.512L3433.33 6.8688C3442.54 -3.34457 3459.07 -1.43581 3465.7 10.6072L3531.98 130.88C3532.83 132.432 3533.48 134.092 3533.9 135.815L3618.02 482.393C3618.28 483.427 3618.44 484.48 3618.53 485.541L3643.36 801.121C3644.57 816.486 3665.81 819.487 3671.23 805.058V805.058C3674.61 796.056 3685.69 792.826 3693.38 798.602L3718.6 817.547C3722.75 820.664 3725.52 825.271 3726.34 830.396L3764.25 1068.74C3764.83 1072.35 3766.38 1075.74 3768.75 1078.53L3796.48 1111.23C3800.96 1116.51 3807.86 1119.1 3814.72 1118.07L3839.26 1114.36C3849.04 1112.88 3856.27 1104.48 3856.27 1094.59V1036.63C3856.27 1032.93 3857.3 1029.3 3859.24 1026.15L3896.49 965.605C3900.66 958.84 3908.43 955.18 3916.29 956.279L3984.27 965.774C3994.15 967.155 4001.5 975.605 4001.5 985.582V1250.71V1391.98V1462.61V1497.93V1515.58V1524.41V1528.83V1528.83C4001.5 1531.27 3999.52 1533.24 3997.09 1533.24H20.0001C8.95439 1533.24 0 1524.29 0 1513.24V467.62Z" fill="#2D3238"/>
</svg>



