<svg width="4009" height="1619" viewBox="0 0 4009 1619" fill="none" xmlns="http://www.w3.org/2000/svg">
<path d="M2074.18 451.028C2082.85 447.56 2092.76 450.553 2098.07 458.241L2171.87 565.219C2173.36 567.387 2175.27 569.237 2177.48 570.665L2280 636.846C2283.14 638.873 2285.65 641.738 2287.24 645.117L2343.06 763.441C2344.59 766.689 2346.97 769.464 2349.94 771.476L2572.43 921.939C2573.31 922.537 2574.24 923.064 2575.21 923.514L2792.3 1024.25C2793.83 1024.96 2795.26 1025.85 2796.56 1026.92L2941.19 1145.44C2947.36 1150.5 2955.94 1151.41 2963.02 1147.76L3200.74 1025.31L3691.98 849.746C3699.06 847.214 3704.13 840.923 3705.09 833.462L3767.37 348.906C3767.54 347.607 3767.83 346.326 3768.25 345.084L3812.2 214.323C3813.5 210.462 3815.95 207.089 3819.21 204.656L3881.48 158.281C3892.31 150.212 3907.86 154.982 3912.31 167.737L4007.89 441.901C4008.62 444.017 4009 446.243 4009 448.484V1598.52C4009 1609.57 4000.05 1618.52 3989 1618.52H24.9305C13.912 1618.52 4.96892 1609.61 4.9305 1598.59L0.51627 332.666C0.505567 329.597 1.2015 326.566 2.55017 323.809L18.1774 291.859C20.9637 286.163 27.4479 283.302 33.5338 285.083V285.083C39.3645 286.79 45.6006 284.238 48.5623 278.933L75.6912 230.344C76.5598 228.788 77.2167 227.123 77.6443 225.394L86.3188 190.301C87.4072 185.898 89.9599 181.996 93.558 179.235L103.986 171.232C107.557 168.491 110.099 164.625 111.201 160.261L118.718 130.484C120.701 122.626 129.248 118.411 136.69 121.621V121.621C143.054 124.366 150.456 121.705 153.615 115.537L156.444 110.013C157.797 107.372 159.727 105.068 162.091 103.273L183.392 87.1007C184.791 86.0382 186.044 84.7959 187.119 83.406L245.055 8.48095C249.362 2.91105 256.281 0.0161322 263.271 0.858927L316.815 7.31455C320.53 7.76251 324.046 9.24398 326.961 11.5905L382.463 56.263C383.485 57.0857 384.424 58.0069 385.266 59.0135L430.581 113.205C431.853 114.726 433.345 116.05 435.007 117.133L482.023 147.758C485.271 149.874 489.063 151 492.939 151H502.494C506.098 151 509.634 150.026 512.73 148.182L526.77 139.818C529.866 137.974 533.402 137 537.006 137H546.689C554.239 137 561.145 141.251 564.545 147.991L613.137 244.308C614.366 246.743 616.08 248.902 618.174 250.651L728.979 343.176C731.93 345.641 734.109 348.904 735.253 352.575L751.002 403.092C752.299 407.25 754.917 410.871 758.459 413.405L811.817 451.58C813.594 452.852 815.15 454.405 816.424 456.18L850.245 503.271C852.687 506.671 854 510.752 854 514.938V566.605C854 573.782 861.861 578.187 867.982 574.44V574.44C873.227 571.229 880.083 573.977 881.658 579.921L897.05 638.028C897.998 641.606 899.92 644.85 902.602 647.401L920.51 664.428C925.754 669.413 933.28 671.178 940.193 669.043L992.846 652.783C995.583 651.937 998.107 650.514 1000.25 648.609L1026.79 624.967C1028.26 623.663 1029.9 622.581 1031.68 621.756L1087.7 595.797C1089.56 594.938 1091.53 594.367 1093.56 594.107L1171.73 584.063C1177.02 583.383 1182.37 584.847 1186.58 588.13L1202.8 600.787C1204.26 601.923 1205.87 602.853 1207.58 603.548L1244.95 618.715C1251.49 621.371 1258.95 620.38 1264.57 616.107L1290.49 596.408C1292.15 595.144 1293.61 593.627 1294.8 591.913L1335.59 533.335C1338.43 529.258 1342.68 526.384 1347.52 525.271L1413.8 510.041C1418.14 509.042 1422.03 506.621 1424.84 503.161L1443.37 480.357C1445.42 477.824 1448.07 475.833 1451.08 474.558L1512.15 448.642C1517.41 446.411 1523.41 446.783 1528.35 449.647V449.647C1532.6 452.11 1535.67 456.19 1536.86 460.957L1544.8 492.712C1545.57 495.79 1549.34 496.942 1551.7 494.82V494.82C1553.96 492.786 1557.57 493.746 1558.51 496.635L1576.53 551.527C1577.5 554.469 1579.13 557.146 1581.31 559.348L1616.25 594.706C1618.71 597.192 1620.47 600.278 1621.36 603.657L1631.44 641.814C1633.05 647.91 1637.44 652.89 1643.29 655.251L1667.56 665.052C1677.76 669.172 1689.37 664.278 1693.55 654.098L1699.91 638.601C1701.28 635.263 1703.52 632.357 1706.41 630.192L1711.8 626.154C1714.55 624.086 1716.73 621.342 1718.11 618.187L1725.41 601.538C1727.04 597.819 1731.59 596.399 1735.05 598.528V598.528C1738.47 600.637 1742.97 599.265 1744.64 595.603L1767.13 546.214C1768.68 542.806 1771.15 539.903 1774.27 537.834L1808.01 515.459C1814.42 511.206 1822.7 511.009 1829.31 514.952L1839.43 520.992C1845.65 524.702 1853.39 524.763 1859.66 521.15L1863.26 519.079C1865.07 518.033 1867.05 517.279 1869.1 516.845L1887.76 512.898C1890.55 512.306 1893.44 512.321 1896.23 512.941L1933.2 521.155C1938.5 522.334 1944.06 521.304 1948.59 518.301L1981.99 496.161C1984.62 494.412 1987.64 493.314 1990.79 492.958L2004.91 491.36C2009.8 490.806 2014.31 488.468 2017.59 484.794L2029.87 471.014C2031.93 468.703 2034.5 466.902 2037.37 465.752L2074.18 451.028Z" fill="#3C4248"/>
</svg>
