<svg width="1920" height="307" viewBox="0 0 1920 307" fill="none" xmlns="http://www.w3.org/2000/svg">
<path d="M0 284.662V283.454V269.87H2H11.5L18.5 262.539L30 268.965L46.5 266.539L62.5 269.87L66 257.623L76.5 260.039L85 252.039L97 250.887L102 247.387L115 257.623L143 250.887L156 247.387L172 250.887L184.5 247.387H197.5L206.5 240.887L216.5 244.887L223.5 240.887L231.5 236.387L237 240.887L246.5 236.387L260 234.387H271.5H290L307 225.094L326 222.094H339.5L349.5 220.094L362.5 212.515L385 207.594L400.5 213.496H419L428.5 212.515L437.5 207.594L447 213.496L458 207.594L469 197.594L471.5 207.594L478.5 212.515L480 213.496H482.5L489 203.094L510 197.594L523.5 191.094V184.207L548.5 181.707L564.5 187.594L573 174.707L590 184.207L605.5 177.754L618.5 161.254L635.5 172.254L663.5 161.254L684 169.018L709.5 155.16L726.5 163.754L757 166.028L786.5 169.018L800.5 166.028L820.5 155.16L845 160.122L859.5 149.254L881 156.67L904.5 157.575L941.5 155.16V132.754L960 142.331L988 139.463L1002.5 123.766L1026.5 128.294H1074.5L1094.5 126.181L1106.5 123.766L1135.5 112.597L1128 98.1072L1152 95.9941L1201 98.1072V95.9941L1211.5 106.258L1226 90.5605L1248.5 85.7306L1268.5 98.1072L1280.5 94.1829L1306 90.5605L1335.25 70.939L1364 81.5044L1374.5 82.1082L1382.16 80.0988H1390L1417.5 76.9764L1441.5 73.9577L1455 70.939L1487 65.5054L1509.5 49.5064L1522.88 55.5438H1549.5L1575.5 49.5064L1595.5 48.6008L1612.5 51.3176L1630 45.884L1659.5 40.7522L1675.5 39.2429L1690.5 34.1111L1730 31.0924L1748.5 28.3756L1761 23.8476H1795L1809.5 19.9233L1818 19.3196L1857 8L1875.5 11.7729L1901 4.82989L1920 0V49.5064H1906.5L1894 56.1475L1866.5 60.0718L1849.5 67.9203L1823 69.1278L1809.5 66.1091L1783 71.2409L1766 83.9194L1724 85.7306L1714.5 90.5605L1701.5 87.2399L1681.5 95.9941L1663 100.522L1653.5 109.578L1640.5 106.861H1621L1610 112.597L1595.5 119.238L1587.5 128.294L1578 124.973L1565.5 130.105L1556 135.841L1538.5 131.916L1513.5 135.841L1504 133.124L1491 139.161L1487 143.991L1472 140.369L1461.5 145.802L1446.5 137.35L1441.5 140.369L1432 137.35L1424 143.991H1409.5H1382.16L1364 158.783H1335.25L1306 173.272L1297.5 184.14L1268.5 176.593L1226 173.876V187.762L1194.53 184.14L1167 187.46L1140 202.855L1106.5 195.705H1071.5L1055.5 202.855L1038 197.724L1018 206.78L1014 221.571L988 212.817L964.5 206.78L941.5 212.817L929 209.195L911 212.817L902 220.666L885 213.647L863 210.213L842.5 216.741L818.5 220.666L794 216.741L764 219.156L750 216.741L733.5 220.666L731 225.496L707 221.571L695 225.496L684 223.684L679 230.627L665 228.816L657 234.25L648.5 240.287L643 235.985L635.5 234.25L621.5 238.778L605.5 235.985L595.5 235.155L582.5 240.287L581 246.023L569 242.4L560 243.004L552 248.438L548.5 254.475L538 251.758L529.5 250.551L523.5 251.758L518 249.645L512.5 248.438L502.5 250.551L493.5 248.438H478.5L476 252.664L471.5 251.456H464L458 249.645L455 253.871L447 252.664L442 255.682H437.5L434 257.795L428.5 258.871H422L415 257.795L407.125 258.871L404 262.323L393.5 260.512L388.5 261.72L383 263.531L376 262.323L372.25 263.871H359.25L349.5 265.04L343.5 267.757L333.5 266.55L323.5 267.757L318.5 269.87L312.5 268.965L307 269.87L298.5 273.191L295 271.983L290 268.965L279.5 274.096L277 276.511L267 275.606L260 274.096L252 277.115L246.5 275.606L237 277.115L231.5 281.039L221 279.53L212 279.832L205 281.039L201.5 285.567H186.5L182.5 287.68L177.5 291.605L174 290.699L168 287.982L164 286.775L152.5 288.888L140 289.19L134.5 289.793L130.5 291.907L125 289.793L118 292.812L115 290.397H100L99.5 293.114L93 292.208L83.5 296.435L76.5 297.038L72.5 298.548L70 300.661L68 298.548L62.5 300.661L61 303.981L53 301.264L45 304.585L35 303.981L30 305.491L26.5 303.076L22 303.981L18.5 303.076L13 304.585L7 307H2H0.5L0 306.396V284.662Z" fill="#D9D9D9"/>
</svg>
